<svg width="680" height="151" xmlns="http://www.w3.org/2000/svg" xmlns:xlink="http://www.w3.org/1999/xlink" overflow="hidden"><g><rect x="0" y="0" width="680" height="150.907" fill="#FFFFFF"/><path d="M457.52 128.921 457 76.0426C473.987 62.8614 509.433 34.7362 533.96 34.1997 558.487 33.6633 578.16 73.3604 604.16 72.8239 630.16 72.2875 647.84 47.2277 665 30.981L665 128.921 457.52 128.921Z" fill="#D9D9D9" fill-rule="evenodd"/><path d="M457 75.9534C469.601 65.908 510.402 33.9174 534.913 33.2992 559.424 32.681 578.096 73.4807 604.067 72.2444 630.038 71.008 651.399 43.3445 664 30.981" stroke="#172C51" stroke-width="1.99902" stroke-miterlimit="8" fill="none" fill-rule="evenodd"/><rect x="240" y="79.951" width="11" height="50.9687" fill="#D9D9D9"/><rect x="251" y="71.9559" width="10" height="58.9639" fill="#D9D9D9"/><rect x="261" y="64.9601" width="9.99994" height="65.9596" fill="#D9D9D9"/><rect x="271" y="56.965" width="10" height="73.9547" fill="#D9D9D9"/><rect x="282" y="50.9687" width="9.99994" height="79.951" fill="#D9D9D9"/><rect x="292" y="44.9724" width="10" height="85.9473" fill="#D9D9D9"/><rect x="303" y="40.9748" width="9.99994" height="89.9449" fill="#D9D9D9"/><rect x="313" y="37.9767" width="10" height="92.9431" fill="#D9D9D9"/><rect x="324" y="37.9767" width="9.99994" height="92.9431" fill="#D9D9D9"/><rect x="334" y="40.9748" width="10" height="89.9449" fill="#D9D9D9"/><rect x="344" y="48.97" width="10" height="81.9498" fill="#D9D9D9"/><rect x="355" y="58.9638" width="9.99994" height="71.956" fill="#D9D9D9"/><rect x="365" y="67.9584" width="10" height="62.9614" fill="#D9D9D9"/><rect x="375" y="73.9547" width="10" height="56.9651" fill="#D9D9D9"/><rect x="386" y="75.9534" width="10" height="54.9663" fill="#D9D9D9"/><rect x="396" y="73.9547" width="10" height="56.9651" fill="#D9D9D9"/><rect x="407" y="69.9571" width="10" height="60.9626" fill="#D9D9D9"/><rect x="417" y="63.9608" width="10" height="66.9589" fill="#D9D9D9"/><rect x="427" y="54.9663" width="9.99994" height="75.9534" fill="#D9D9D9"/><rect x="438" y="44.9724" width="10" height="85.9473" fill="#D9D9D9"/><path d="M240 79.951C252.54 69.9056 293.144 37.9148 317.537 37.2967 341.93 36.6785 360.511 77.4783 386.356 76.2419 412.202 75.0056 433.459 47.342 446 34.9785" stroke="#172C51" stroke-width="1.99902" stroke-miterlimit="8" fill="none" fill-rule="evenodd"/><rect x="15" y="62.9614" width="41" height="68.9577" fill="#D9D9D9"/><rect x="56" y="34.9785" width="42.0001" height="96.9406" fill="#D9D9D9"/><rect x="98" y="16.9895" width="41" height="114.93" fill="#D9D9D9"/><rect x="139" y="51.9682" width="41" height="79.9509" fill="#D9D9D9"/><rect x="179" y="51.9682" width="41" height="79.9509" fill="#D9D9D9"/><path d="M15 61.962C27.5404 51.9166 68.144 19.9259 92.5368 19.3077 116.93 18.6896 135.511 59.4892 161.356 58.2529 187.202 57.0165 208.46 29.3531 221 16.9895" stroke="#172C51" stroke-width="1.99902" stroke-miterlimit="8" fill="none" fill-rule="evenodd"/><path d="M205.5 98.1898 233 98.1898 233 88.4458 252.5 107.934 233 127.422 233 117.678 205.5 117.678Z" stroke="#172C51" stroke-width="1.33268" stroke-miterlimit="8" fill="#FFFFFF" fill-rule="evenodd"/><path d="M433.5 96.9406 461.5 96.9406 461.5 87.4464 480.5 106.435 461.5 125.423 461.5 115.929 433.5 115.929Z" stroke="#172C51" stroke-width="1.33268" stroke-miterlimit="8" fill="#FFFFFF" fill-rule="evenodd"/></g></svg>