<svg width="340" height="227" xmlns="http://www.w3.org/2000/svg" xmlns:xlink="http://www.w3.org/1999/xlink" overflow="hidden"><defs><clipPath id="clip0"><rect x="0" y="0" width="340" height="227"/></clipPath></defs><g clip-path="url(#clip0)"><rect x="0" y="0" width="340" height="227.278" fill="#FFFFFF"/><path d="M15.9145 147.829C44.1101 126.466 107.969 69.7019 177.773 103.882 247.576 138.063 301.529 1.95147 325 23.3142L325 208.255 15 208.255 15.9145 147.829Z" fill="#00B050" fill-rule="evenodd" fill-opacity="0.301961"/><path d="M35.5 102.125C35.5 69.7768 61.6913 43.5533 94 43.5533 126.309 43.5533 152.5 69.7768 152.5 102.125 152.5 134.473 126.309 160.697 94 160.697 61.6913 160.697 35.5 134.473 35.5 102.125Z" stroke="#00B050" stroke-width="2.99853" stroke-miterlimit="8" stroke-dasharray="2.99853 2.99853" fill="none" fill-rule="evenodd"/><path d="M47.5 101.624C47.5 76.1882 68.0949 55.568 93.5 55.568 118.905 55.568 139.5 76.1882 139.5 101.624 139.5 127.061 118.905 147.681 93.5 147.681 68.0949 147.681 47.5 127.061 47.5 101.624Z" stroke="#00B050" stroke-width="2.99853" stroke-miterlimit="8" stroke-dasharray="2.99853 2.99853" fill="none" fill-rule="evenodd"/><path d="M60.5 102.125C60.5 83.6007 75.4985 68.5839 94 68.5839 112.502 68.5839 127.5 83.6007 127.5 102.125 127.5 120.649 112.502 135.666 94 135.666 75.4985 135.666 60.5 120.649 60.5 102.125Z" stroke="#00B050" stroke-width="2.99853" stroke-miterlimit="8" stroke-dasharray="2.99853 2.99853" fill="none" fill-rule="evenodd"/><path d="M73.5 102.125C73.5 91.3423 82.4543 82.6011 93.5 82.6011 104.546 82.6011 113.5 91.3423 113.5 102.125 113.5 112.908 104.546 121.649 93.5 121.649 82.4543 121.649 73.5 112.908 73.5 102.125Z" stroke="#00B050" stroke-width="2.99853" stroke-miterlimit="8" stroke-dasharray="2.99853 2.99853" fill="none" fill-rule="evenodd"/><path d="M87.5 102.125C87.5 98.5307 90.4101 95.617 94 95.617 97.5899 95.617 100.5 98.5307 100.5 102.125 100.5 105.719 97.5899 108.633 94 108.633 90.4101 108.633 87.5 105.719 87.5 102.125Z" stroke="#00B050" stroke-width="1.33268" stroke-miterlimit="8" stroke-dasharray="1.33268 1.33268" fill="#00B050" fill-rule="evenodd"/><path d="M180.5 127.156C180.5 94.8074 206.691 68.5839 239 68.5839 271.309 68.5839 297.5 94.8074 297.5 127.156 297.5 159.504 271.309 185.727 239 185.727 206.691 185.727 180.5 159.504 180.5 127.156Z" stroke="#00B050" stroke-width="2.99853" stroke-miterlimit="8" stroke-dasharray="2.99853 2.99853" fill="none" fill-rule="evenodd"/><path d="M192.5 127.656C192.5 102.22 213.095 81.5999 238.5 81.5999 263.905 81.5999 284.5 102.22 284.5 127.656 284.5 153.092 263.905 173.713 238.5 173.713 213.095 173.713 192.5 153.092 192.5 127.656Z" stroke="#00B050" stroke-width="2.99853" stroke-miterlimit="8" stroke-dasharray="2.99853 2.99853" fill="none" fill-rule="evenodd"/><path d="M205.5 127.656C205.5 109.409 220.498 94.6158 239 94.6158 257.502 94.6158 272.5 109.409 272.5 127.656 272.5 145.904 257.502 160.697 239 160.697 220.498 160.697 205.5 145.904 205.5 127.656Z" stroke="#00B050" stroke-width="2.99853" stroke-miterlimit="8" stroke-dasharray="2.99853 2.99853" fill="none" fill-rule="evenodd"/><path d="M218.5 127.656C218.5 116.597 227.454 107.632 238.5 107.632 249.546 107.632 258.5 116.597 258.5 127.656 258.5 138.715 249.546 147.681 238.5 147.681 227.454 147.681 218.5 138.715 218.5 127.656Z" stroke="#00B050" stroke-width="2.99853" stroke-miterlimit="8" stroke-dasharray="2.99853 2.99853" fill="none" fill-rule="evenodd"/><path d="M232.5 127.156C232.5 123.561 235.41 120.648 239 120.648 242.59 120.648 245.5 123.561 245.5 127.156 245.5 130.75 242.59 133.664 239 133.664 235.41 133.664 232.5 130.75 232.5 127.156Z" stroke="#00B050" stroke-width="1.33268" stroke-miterlimit="8" stroke-dasharray="1.33268 1.33268" fill="#00B050" fill-rule="evenodd"/><text fill="#00B050" font-family="Cambria Math,Cambria Math_MSFontService,sans-serif" font-weight="400" font-size="24.0176" transform="matrix(1 0 0 1.00123 32.4723 197)">𝑈</text><path d="M16.5 148.682C44.6879 127.428 108.53 70.9549 178.314 104.961 248.098 138.966 302.035 3.55091 325.5 24.8044" stroke="#00B050" stroke-width="1.33268" stroke-miterlimit="8" fill="none" fill-rule="evenodd"/></g></svg>