<svg width="340" height="227" xmlns="http://www.w3.org/2000/svg" xmlns:xlink="http://www.w3.org/1999/xlink" overflow="hidden"><defs><clipPath id="clip0"><rect x="0" y="0" width="340" height="227"/></clipPath></defs><g clip-path="url(#clip0)"><rect x="0" y="0" width="340" height="227.278" fill="#FFFFFF"/><path d="M16.4145 148.329C44.6102 126.966 108.469 70.2026 178.273 104.383 248.076 138.564 302.029 2.4521 325.5 23.8149L325.5 208.755 15.5 208.755 16.4145 148.329Z" stroke="#00B050" stroke-width="1.33268" stroke-miterlimit="8" fill="#00B050" fill-rule="evenodd" fill-opacity="0.301961"/><path d="M35.5 103.126C35.5 70.7779 61.6913 44.5545 94 44.5545 126.309 44.5545 152.5 70.7779 152.5 103.126 152.5 135.474 126.309 161.698 94 161.698 61.6913 161.698 35.5 135.474 35.5 103.126Z" stroke="#00B050" stroke-width="2.99853" stroke-miterlimit="8" stroke-dasharray="2.99853 2.99853" fill="none" fill-rule="evenodd"/><path d="M47.5 103.627C47.5 78.1906 68.0949 57.5705 93.5 57.5705 118.905 57.5705 139.5 78.1906 139.5 103.627 139.5 129.063 118.905 149.683 93.5 149.683 68.0949 149.683 47.5 129.063 47.5 103.627Z" stroke="#00B050" stroke-width="2.99853" stroke-miterlimit="8" stroke-dasharray="2.99853 2.99853" fill="none" fill-rule="evenodd"/><path d="M60.5 103.126C60.5 84.602 75.4985 69.5852 94 69.5852 112.502 69.5852 127.5 84.602 127.5 103.126 127.5 121.65 112.502 136.667 94 136.667 75.4985 136.667 60.5 121.65 60.5 103.126Z" stroke="#00B050" stroke-width="2.99853" stroke-miterlimit="8" stroke-dasharray="2.99853 2.99853" fill="none" fill-rule="evenodd"/><path d="M73.5 103.126C73.5 92.3434 82.4543 83.6023 93.5 83.6023 104.546 83.6023 113.5 92.3434 113.5 103.126 113.5 113.909 104.546 122.65 93.5 122.65 82.4543 122.65 73.5 113.909 73.5 103.126Z" stroke="#00B050" stroke-width="2.99853" stroke-miterlimit="8" stroke-dasharray="2.99853 2.99853" fill="none" fill-rule="evenodd"/><path d="M87.5 103.126C87.5 99.532 90.4101 96.6182 94 96.6182 97.5899 96.6182 100.5 99.532 100.5 103.126 100.5 106.72 97.5899 109.634 94 109.634 90.4101 109.634 87.5 106.72 87.5 103.126Z" stroke="#00B050" stroke-width="1.33268" stroke-miterlimit="8" fill="#00B050" fill-rule="evenodd"/><path d="M180.5 127.156C180.5 94.8074 206.691 68.5839 239 68.5839 271.309 68.5839 297.5 94.8074 297.5 127.156 297.5 159.504 271.309 185.727 239 185.727 206.691 185.727 180.5 159.504 180.5 127.156Z" stroke="#00B050" stroke-width="2.99853" stroke-miterlimit="8" stroke-dasharray="2.99853 2.99853" fill="none" fill-rule="evenodd"/><path d="M192.5 127.656C192.5 102.22 213.095 81.5999 238.5 81.5999 263.905 81.5999 284.5 102.22 284.5 127.656 284.5 153.092 263.905 173.713 238.5 173.713 213.095 173.713 192.5 153.092 192.5 127.656Z" stroke="#00B050" stroke-width="2.99853" stroke-miterlimit="8" stroke-dasharray="2.99853 2.99853" fill="none" fill-rule="evenodd"/><path d="M205.5 127.656C205.5 109.409 220.498 94.6158 239 94.6158 257.502 94.6158 272.5 109.409 272.5 127.656 272.5 145.904 257.502 160.697 239 160.697 220.498 160.697 205.5 145.904 205.5 127.656Z" stroke="#00B050" stroke-width="2.99853" stroke-miterlimit="8" stroke-dasharray="2.99853 2.99853" fill="none" fill-rule="evenodd"/><path d="M218.5 127.656C218.5 116.597 227.454 107.632 238.5 107.632 249.546 107.632 258.5 116.597 258.5 127.656 258.5 138.715 249.546 147.681 238.5 147.681 227.454 147.681 218.5 138.715 218.5 127.656Z" stroke="#00B050" stroke-width="2.99853" stroke-miterlimit="8" stroke-dasharray="2.99853 2.99853" fill="none" fill-rule="evenodd"/><path d="M232.5 127.156C232.5 123.561 235.41 120.648 239 120.648 242.59 120.648 245.5 123.561 245.5 127.156 245.5 130.75 242.59 133.664 239 133.664 235.41 133.664 232.5 130.75 232.5 127.156Z" stroke="#00B050" stroke-width="1.33268" stroke-miterlimit="8" fill="#00B050" fill-rule="evenodd"/><text fill="#00B050" font-family="Cambria Math,Cambria Math_MSFontService,sans-serif" font-weight="400" font-size="24.0176" transform="matrix(1 0 0 1.00123 32.4723 197)">𝑈</text></g></svg>