<svg width="501" height="359" xmlns="http://www.w3.org/2000/svg" xmlns:xlink="http://www.w3.org/1999/xlink" overflow="hidden"><defs><clipPath id="clip0"><rect x="0" y="0" width="501" height="359"/></clipPath></defs><g clip-path="url(#clip0)"><rect x="0" y="0" width="501" height="358.881" fill="#FFFFFF"/><path d="M299 156.448C299 153.963 301.015 151.949 303.5 151.949 305.985 151.949 308 153.963 308 156.448 308 158.932 305.985 160.946 303.5 160.946 301.015 160.946 299 158.932 299 156.448Z" fill="#D5BFD0" fill-rule="evenodd"/><path d="M299 177.941C299 175.18 301.015 172.942 303.5 172.942 305.985 172.942 308 175.18 308 177.941 308 180.701 305.985 182.939 303.5 182.939 301.015 182.939 299 180.701 299 177.941Z" fill="#D5BFD0" fill-rule="evenodd"/><path d="M299 200.433C299 197.949 300.791 195.935 303 195.935 305.209 195.935 307 197.949 307 200.433 307 202.918 305.209 204.932 303 204.932 300.791 204.932 299 202.918 299 200.433Z" fill="#D5BFD0" fill-rule="evenodd"/><path d="M334 145.452C334 142.967 335.791 140.953 338 140.953 340.209 140.953 342 142.967 342 145.452 342 147.936 340.209 149.95 338 149.95 335.791 149.95 334 147.936 334 145.452Z" fill="#87A3BE" fill-rule="evenodd"/><path d="M334 166.445C334 163.96 335.791 161.946 338 161.946 340.209 161.946 342 163.96 342 166.445 342 168.929 340.209 170.943 338 170.943 335.791 170.943 334 168.929 334 166.445Z" fill="#87A3BE" fill-rule="evenodd"/><path d="M334 190.437C334 187.952 335.791 185.938 338 185.938 340.209 185.938 342 187.952 342 190.437 342 192.921 340.209 194.935 338 194.935 335.791 194.935 334 192.921 334 190.437Z" fill="#87A3BE" fill-rule="evenodd"/><path d="M334 211.43C334 208.945 335.791 206.931 338 206.931 340.209 206.931 342 208.945 342 211.43 342 213.914 340.209 215.928 338 215.928 335.791 215.928 334 213.914 334 211.43Z" fill="#87A3BE" fill-rule="evenodd"/><path d="M369 156.948C369 154.187 370.791 151.949 373 151.949 375.209 151.949 377 154.187 377 156.948 377 159.708 375.209 161.946 373 161.946 370.791 161.946 369 159.708 369 156.948Z" fill="#9CA5B5" fill-rule="evenodd"/><path d="M369 178.441C369 175.956 370.791 173.942 373 173.942 375.209 173.942 377 175.956 377 178.441 377 180.925 375.209 182.939 373 182.939 370.791 182.939 369 180.925 369 178.441Z" fill="#9CA5B5" fill-rule="evenodd"/><path d="M368 200.433C368 197.949 370.015 195.935 372.5 195.935 374.985 195.935 377 197.949 377 200.433 377 202.918 374.985 204.932 372.5 204.932 370.015 204.932 368 202.918 368 200.433Z" fill="#9CA5B5" fill-rule="evenodd"/><path d="M403 177.441C403 174.957 405.015 172.942 407.5 172.942 409.985 172.942 412 174.957 412 177.441 412 179.925 409.985 181.939 407.5 181.939 405.015 181.939 403 179.925 403 177.441Z" fill="#BA91B1" fill-rule="evenodd"/><path d="M0 0 25.6997 10.3908" stroke="#4472C4" stroke-width="0.666667" stroke-miterlimit="8" fill="none" fill-rule="evenodd" transform="matrix(1.00033 0 0 -1 308.5 156.842)"/><path d="M0 0 28.2548 26.1223" stroke="#4472C4" stroke-width="0.666667" stroke-miterlimit="8" fill="none" fill-rule="evenodd" transform="matrix(1.00033 0 0 -1 307.5 175.573)"/><path d="M0 0 28.6825 48.3723" stroke="#4472C4" stroke-width="0.666667" stroke-miterlimit="8" fill="none" fill-rule="evenodd" transform="matrix(1.00033 0 0 -1 306.5 197.823)"/><path d="M308.5 157.448 334.208 167.133" stroke="#4472C4" stroke-width="0.666889" stroke-miterlimit="8" fill="none" fill-rule="evenodd"/><path d="M307.5 160.447 335.764 187.844" stroke="#4472C4" stroke-width="0.666889" stroke-miterlimit="8" fill="none" fill-rule="evenodd"/><path d="M307.5 160.447 335.764 208.89" stroke="#4472C4" stroke-width="0.666889" stroke-miterlimit="8" fill="none" fill-rule="evenodd"/><path d="M307.5 181.44 335.764 208.464" stroke="#4472C4" stroke-width="0.666889" stroke-miterlimit="8" fill="none" fill-rule="evenodd"/><path d="M307.5 181.44 334.061 190.855" stroke="#4472C4" stroke-width="0.666889" stroke-miterlimit="8" fill="none" fill-rule="evenodd"/><path d="M0 0 25.6016 9.61407" stroke="#4472C4" stroke-width="0.666667" stroke-miterlimit="8" fill="none" fill-rule="evenodd" transform="matrix(1.00033 0 0 -1 307.5 201.05)"/><path d="M307.5 200.433 333.636 211.866" stroke="#4472C4" stroke-width="0.666889" stroke-miterlimit="8" fill="none" fill-rule="evenodd"/><path d="M0 0 28.6825 27.3258" stroke="#4472C4" stroke-width="0.666667" stroke-miterlimit="8" fill="none" fill-rule="evenodd" transform="matrix(1.00033 0 0 -1 306.5 197.769)"/><path d="M0 0 26.3841 9.4085" stroke="#4472C4" stroke-width="0.666667" stroke-miterlimit="8" fill="none" fill-rule="evenodd" transform="matrix(1.00033 0 0 -1 342.5 166.856)"/><path d="M0 0 28.9392 27.1203" stroke="#4472C4" stroke-width="0.666667" stroke-miterlimit="8" fill="none" fill-rule="evenodd" transform="matrix(1.00033 0 0 -1 341.5 187.567)"/><path d="M0 0 28.9392 48.1667" stroke="#4472C4" stroke-width="0.666667" stroke-miterlimit="8" fill="none" fill-rule="evenodd" transform="matrix(1.00033 0 0 -1 341.5 208.613)"/><path d="M0 0 28.9392 26.7476" stroke="#4472C4" stroke-width="0.666667" stroke-miterlimit="8" fill="none" fill-rule="evenodd" transform="matrix(1.00033 0 0 -1 341.5 209.187)"/><path d="M0 0 25.9564 11.1555" stroke="#4472C4" stroke-width="0.666667" stroke-miterlimit="8" fill="none" fill-rule="evenodd" transform="matrix(1.00033 0 0 -1 342.5 212.588)"/><path d="M342.5 191.436 368.465 201.327" stroke="#4472C4" stroke-width="0.666889" stroke-miterlimit="8" fill="none" fill-rule="evenodd"/><path d="M341.5 170.443 370.021 198.046" stroke="#4472C4" stroke-width="0.666889" stroke-miterlimit="8" fill="none" fill-rule="evenodd"/><path d="M341.5 149.45 370.021 198.099" stroke="#4472C4" stroke-width="0.666889" stroke-miterlimit="8" fill="none" fill-rule="evenodd"/><path d="M341.5 170.443 369.171 179.125" stroke="#4472C4" stroke-width="0.666889" stroke-miterlimit="8" fill="none" fill-rule="evenodd"/><path d="M341.5 149.45 369.339 176.06" stroke="#4472C4" stroke-width="0.666889" stroke-miterlimit="8" fill="none" fill-rule="evenodd"/><path d="M342.5 145.452 368.893 157.089" stroke="#4472C4" stroke-width="0.666889" stroke-miterlimit="8" fill="none" fill-rule="evenodd"/><path d="M376.5 160.447 404.786 174.54" stroke="#4472C4" stroke-width="0.666889" stroke-miterlimit="8" fill="none" fill-rule="evenodd"/><path d="M0 0 25.7215 0.668136" stroke="#4472C4" stroke-width="0.666667" stroke-miterlimit="8" fill="none" fill-rule="evenodd" transform="matrix(1.00033 0 0 -1 377.5 179.109)"/><path d="M0 0 28.7043 16.2603" stroke="#4472C4" stroke-width="0.666667" stroke-miterlimit="8" fill="none" fill-rule="evenodd" transform="matrix(1.00033 0 0 -1 376.5 197.7)"/><path d="M132.5 131.956C132.5 128.367 142.797 125.458 155.5 125.458 168.203 125.458 178.5 128.367 178.5 131.956L178.5 157.947C178.5 161.536 168.203 164.445 155.5 164.445 142.797 164.445 132.5 161.536 132.5 157.947Z" fill="#F2F2F2" fill-rule="evenodd"/><path d="M178.5 131.956C178.5 135.545 168.203 138.454 155.5 138.454 142.797 138.454 132.5 135.545 132.5 131.956" stroke="#A6A6A6" stroke-width="1.33378" stroke-miterlimit="8" fill="none" fill-rule="evenodd"/><path d="M132.5 131.956C132.5 128.367 142.797 125.458 155.5 125.458 168.203 125.458 178.5 128.367 178.5 131.956L178.5 157.947C178.5 161.536 168.203 164.445 155.5 164.445 142.797 164.445 132.5 161.536 132.5 157.947Z" stroke="#A6A6A6" stroke-width="1.33378" stroke-miterlimit="8" fill="none" fill-rule="evenodd"/><text font-family="Yu Gothic,Yu Gothic_MSFontService,sans-serif" font-weight="700" font-size="14.6667" transform="matrix(1 0 0 0.999667 133.185 144)">データ</text><text font-family="Yu Gothic,Yu Gothic_MSFontService,sans-serif" font-weight="700" font-size="14.6667" transform="matrix(1 0 0 0.999667 133.185 161)">セット</text><path d="M217.5 161.113C217.5 157.432 228.021 154.449 241 154.449 253.979 154.449 264.5 157.432 264.5 161.113L264.5 187.771C264.5 191.452 253.979 194.435 241 194.435 228.021 194.435 217.5 191.452 217.5 187.771Z" fill="#FBE5D6" fill-rule="evenodd"/><path d="M264.5 161.113C264.5 164.794 253.979 167.777 241 167.777 228.021 167.777 217.5 164.794 217.5 161.113" stroke="#A6A6A6" stroke-width="1.33378" stroke-miterlimit="8" fill="none" fill-rule="evenodd"/><path d="M217.5 161.113C217.5 157.432 228.021 154.449 241 154.449 253.979 154.449 264.5 157.432 264.5 161.113L264.5 187.771C264.5 191.452 253.979 194.435 241 194.435 228.021 194.435 217.5 191.452 217.5 187.771Z" stroke="#A6A6A6" stroke-width="1.33378" stroke-miterlimit="8" fill="none" fill-rule="evenodd"/><text font-family="Calibri,Calibri_MSFontService,sans-serif" font-weight="700" font-size="14.6667" transform="matrix(1 0 0 0.999667 226.659 183)">data</text><path d="M213.5 168.111C213.5 164.43 223.797 161.446 236.5 161.446 249.203 161.446 259.5 164.43 259.5 168.111L259.5 194.769C259.5 198.449 249.203 201.433 236.5 201.433 223.797 201.433 213.5 198.449 213.5 194.769Z" fill="#FBE5D6" fill-rule="evenodd"/><path d="M259.5 168.111C259.5 171.791 249.203 174.775 236.5 174.775 223.797 174.775 213.5 171.791 213.5 168.111" stroke="#A6A6A6" stroke-width="1.33378" stroke-miterlimit="8" fill="none" fill-rule="evenodd"/><path d="M213.5 168.111C213.5 164.43 223.797 161.446 236.5 161.446 249.203 161.446 259.5 164.43 259.5 168.111L259.5 194.769C259.5 198.449 249.203 201.433 236.5 201.433 223.797 201.433 213.5 198.449 213.5 194.769Z" stroke="#A6A6A6" stroke-width="1.33378" stroke-miterlimit="8" fill="none" fill-rule="evenodd"/><text font-family="Calibri,Calibri_MSFontService,sans-serif" font-weight="700" font-size="14.6667" transform="matrix(1 0 0 0.999667 222.083 189)">data</text><path d="M205.5 175.108C205.5 171.428 216.021 168.444 229 168.444 241.979 168.444 252.5 171.428 252.5 175.108L252.5 201.766C252.5 205.447 241.979 208.431 229 208.431 216.021 208.431 205.5 205.447 205.5 201.766Z" fill="#FBE5D6" fill-rule="evenodd"/><path d="M252.5 175.108C252.5 178.789 241.979 181.773 229 181.773 216.021 181.773 205.5 178.789 205.5 175.108" stroke="#A6A6A6" stroke-width="1.33378" stroke-miterlimit="8" fill="none" fill-rule="evenodd"/><path d="M205.5 175.108C205.5 171.428 216.021 168.444 229 168.444 241.979 168.444 252.5 171.428 252.5 175.108L252.5 201.766C252.5 205.447 241.979 208.431 229 208.431 216.021 208.431 205.5 205.447 205.5 201.766Z" stroke="#A6A6A6" stroke-width="1.33378" stroke-miterlimit="8" fill="none" fill-rule="evenodd"/><text font-family="Yu Gothic,Yu Gothic_MSFontService,sans-serif" font-weight="700" font-size="14.6667" transform="matrix(1 0 0 0.999667 214.043 187)">学習</text><text font-family="Yu Gothic,Yu Gothic_MSFontService,sans-serif" font-weight="700" font-size="14.6667" transform="matrix(1 0 0 0.999667 206.708 204)">データ</text><path d="M446.5 163.112C446.5 159.432 456.797 156.448 469.5 156.448 482.203 156.448 492.5 159.432 492.5 163.112L492.5 189.77C492.5 193.451 482.203 196.435 469.5 196.435 456.797 196.435 446.5 193.451 446.5 189.77Z" fill="#F2F2F2" fill-rule="evenodd"/><path d="M492.5 163.112C492.5 166.793 482.203 169.777 469.5 169.777 456.797 169.777 446.5 166.793 446.5 163.112" stroke="#A6A6A6" stroke-width="1.33378" stroke-miterlimit="8" fill="none" fill-rule="evenodd"/><path d="M446.5 163.112C446.5 159.432 456.797 156.448 469.5 156.448 482.203 156.448 492.5 159.432 492.5 163.112L492.5 189.77C492.5 193.451 482.203 196.435 469.5 196.435 456.797 196.435 446.5 193.451 446.5 189.77Z" stroke="#A6A6A6" stroke-width="1.33378" stroke-miterlimit="8" fill="none" fill-rule="evenodd"/><text font-family="Yu Gothic,Yu Gothic_MSFontService,sans-serif" font-weight="700" font-size="14.6667" transform="matrix(1 0 0 0.999667 454.097 176)">推論</text><text font-family="Yu Gothic,Yu Gothic_MSFontService,sans-serif" font-weight="700" font-size="14.6667" transform="matrix(1 0 0 0.999667 454.097 193)">結果</text><path d="M217.5 74.975C217.5 71.3864 227.797 68.4772 240.5 68.4772 253.203 68.4772 263.5 71.3864 263.5 74.975L263.5 100.966C263.5 104.555 253.203 107.464 240.5 107.464 227.797 107.464 217.5 104.555 217.5 100.966Z" fill="#F2F2F2" fill-rule="evenodd"/><path d="M263.5 74.975C263.5 78.5637 253.203 81.4729 240.5 81.4729 227.797 81.4729 217.5 78.5637 217.5 74.975" stroke="#A6A6A6" stroke-width="1.33378" stroke-miterlimit="8" fill="none" fill-rule="evenodd"/><path d="M217.5 74.975C217.5 71.3864 227.797 68.4772 240.5 68.4772 253.203 68.4772 263.5 71.3864 263.5 74.975L263.5 100.966C263.5 104.555 253.203 107.464 240.5 107.464 227.797 107.464 217.5 104.555 217.5 100.966Z" stroke="#A6A6A6" stroke-width="1.33378" stroke-miterlimit="8" fill="none" fill-rule="evenodd"/><text font-family="Calibri,Calibri_MSFontService,sans-serif" font-weight="700" font-size="14.6667" transform="matrix(1 0 0 0.999667 226.307 96)">data</text><path d="M212.5 81.1396C212.5 77.459 223.021 74.4752 236 74.4752 248.979 74.4752 259.5 77.459 259.5 81.1396L259.5 107.797C259.5 111.478 248.979 114.462 236 114.462 223.021 114.462 212.5 111.478 212.5 107.797Z" fill="#F2F2F2" fill-rule="evenodd"/><path d="M259.5 81.1396C259.5 84.8203 248.979 87.8041 236 87.8041 223.021 87.8041 212.5 84.8203 212.5 81.1396" stroke="#A6A6A6" stroke-width="1.33378" stroke-miterlimit="8" fill="none" fill-rule="evenodd"/><path d="M212.5 81.1396C212.5 77.459 223.021 74.4752 236 74.4752 248.979 74.4752 259.5 77.459 259.5 81.1396L259.5 107.797C259.5 111.478 248.979 114.462 236 114.462 223.021 114.462 212.5 111.478 212.5 107.797Z" stroke="#A6A6A6" stroke-width="1.33378" stroke-miterlimit="8" fill="none" fill-rule="evenodd"/><text font-family="Calibri,Calibri_MSFontService,sans-serif" font-weight="700" font-size="14.6667" transform="matrix(1 0 0 0.999667 221.731 102)">data</text><path d="M205.5 88.1373C205.5 84.4566 216.021 81.4729 229 81.4729 241.979 81.4729 252.5 84.4566 252.5 88.1373L252.5 114.795C252.5 118.476 241.979 121.46 229 121.46 216.021 121.46 205.5 118.476 205.5 114.795Z" fill="#F2F2F2" fill-rule="evenodd"/><path d="M252.5 88.1373C252.5 91.818 241.979 94.8018 229 94.8018 216.021 94.8018 205.5 91.818 205.5 88.1373" stroke="#A6A6A6" stroke-width="1.33378" stroke-miterlimit="8" fill="none" fill-rule="evenodd"/><path d="M205.5 88.1373C205.5 84.4566 216.021 81.4729 229 81.4729 241.979 81.4729 252.5 84.4566 252.5 88.1373L252.5 114.795C252.5 118.476 241.979 121.46 229 121.46 216.021 121.46 205.5 118.476 205.5 114.795Z" stroke="#A6A6A6" stroke-width="1.33378" stroke-miterlimit="8" fill="none" fill-rule="evenodd"/><text font-family="Yu Gothic,Yu Gothic_MSFontService,sans-serif" font-weight="700" font-size="14.6667" transform="matrix(1 0 0 0.999667 213.691 109)">正解</text><path d="M0-0.666667 14.0164-0.666667 14.0164 43.6626 13.3498 42.9959 20.0329 42.9959 20.0329 44.3292 12.6831 44.3292 12.6831 0 13.3498 0.666667 0 0.666667ZM18.6995 39.6626 26.6995 43.6626 18.6995 47.6626Z" transform="matrix(1.00033 0 0 -1 178.5 145.129)"/><path d="M178.5 144.785 192.697 144.785 192.697 188.58 192.03 187.913 198.892 187.913 198.892 189.247 191.363 189.247 191.363 145.452 192.03 146.118 178.5 146.118ZM197.558 184.58 205.561 188.58 197.558 192.58Z"/><path d="M0.00789766-0.66662 21.8496-0.407854 21.8338 0.925386-0.00789766 0.66662ZM20.5559-3.75675 28.5079 0.337743 20.4611 4.24269Z" transform="matrix(1.00033 0 0 -1 264.5 174.78)"/><path d="M0.00789766-0.66662 21.8496-0.407854 21.8338 0.925386-0.00789766 0.66662ZM20.5559-3.75675 28.5079 0.337743 20.4611 4.24269Z" transform="matrix(1.00033 0 0 -1 418.5 177.779)"/><path d="M323.5 78.1408C323.5 75.5643 325.589 73.4756 328.167 73.4756L383.833 73.4756C386.411 73.4756 388.5 75.5643 388.5 78.1408L388.5 96.8011C388.5 99.3776 386.411 101.466 383.833 101.466L328.167 101.466C325.589 101.466 323.5 99.3776 323.5 96.8011Z" stroke="#172C51" stroke-width="1.33378" stroke-miterlimit="8" fill="#F2F2F2" fill-rule="evenodd"/><text font-family="Yu Gothic,Yu Gothic_MSFontService,sans-serif" font-weight="700" font-size="14.6667" transform="matrix(1 0 0 0.999667 326.113 92)">損失関数</text><path d="M299.5 141.453C299.5 136.484 302.754 132.456 306.769 132.456L348.731 132.456C352.746 132.456 356 128.428 356 123.459 356 128.428 359.254 132.456 363.269 132.456L405.231 132.456C409.246 132.456 412.5 136.484 412.5 141.453" stroke="#000000" stroke-width="1.33333" stroke-miterlimit="8" fill="none" fill-rule="evenodd"/><path d="M356.167 101.466 356.167 116.497 354.833 116.497 354.833 101.466ZM359.501 115.164 355.5 123.164 351.499 115.164Z"/><path d="M0.00453831-0.666651 52.9593-0.306155 52.9503 1.02715-0.00453831 0.666651ZM51.6487-3.64849 59.6213 0.405879 51.5943 4.35133Z" transform="matrix(1.00033 0 0 -1 263.5 87.8767)"/><path d="M0-0.666667 69.5838-0.666667 69.5838 74.0127 68.2505 74.0127 68.2505 0 68.9172 0.666667 0 0.666667ZM72.9172 72.6794 68.9172 80.6794 64.9172 72.6794Z" transform="matrix(-1.83758e-16 -1 -1.00033 1.83697e-16 469.206 156.388)"/><path d="M299 275.408C299 272.924 301.015 270.91 303.5 270.91 305.985 270.91 308 272.924 308 275.408 308 277.893 305.985 279.907 303.5 279.907 301.015 279.907 299 277.893 299 275.408Z" fill="#D5BFD0" fill-rule="evenodd"/><path d="M299 296.901C299 294.141 301.015 291.903 303.5 291.903 305.985 291.903 308 294.141 308 296.901 308 299.662 305.985 301.9 303.5 301.9 301.015 301.9 299 299.662 299 296.901Z" fill="#D5BFD0" fill-rule="evenodd"/><path d="M299 319.394C299 316.909 301.015 314.895 303.5 314.895 305.985 314.895 308 316.909 308 319.394 308 321.878 305.985 323.892 303.5 323.892 301.015 323.892 299 321.878 299 319.394Z" fill="#D5BFD0" fill-rule="evenodd"/><path d="M334 264.412C334 261.928 335.791 259.913 338 259.913 340.209 259.913 342 261.928 342 264.412 342 266.896 340.209 268.911 338 268.911 335.791 268.911 334 266.896 334 264.412Z" fill="#87A3BE" fill-rule="evenodd"/><path d="M334 285.405C334 282.921 335.791 280.907 338 280.907 340.209 280.907 342 282.921 342 285.405 342 287.889 340.209 289.904 338 289.904 335.791 289.904 334 287.889 334 285.405Z" fill="#87A3BE" fill-rule="evenodd"/><path d="M334 309.397C334 306.913 335.791 304.899 338 304.899 340.209 304.899 342 306.913 342 309.397 342 311.882 340.209 313.896 338 313.896 335.791 313.896 334 311.882 334 309.397Z" fill="#87A3BE" fill-rule="evenodd"/><path d="M334 330.39C334 327.906 335.791 325.892 338 325.892 340.209 325.892 342 327.906 342 330.39 342 332.874 340.209 334.888 338 334.888 335.791 334.888 334 332.874 334 330.39Z" fill="#87A3BE" fill-rule="evenodd"/><path d="M369 275.908C369 273.148 371.015 270.91 373.5 270.91 375.985 270.91 378 273.148 378 275.908 378 278.669 375.985 280.907 373.5 280.907 371.015 280.907 369 278.669 369 275.908Z" fill="#9CA5B5" fill-rule="evenodd"/><path d="M369 297.401C369 294.917 371.015 292.903 373.5 292.903 375.985 292.903 378 294.917 378 297.401 378 299.885 375.985 301.9 373.5 301.9 371.015 301.9 369 299.885 369 297.401Z" fill="#9CA5B5" fill-rule="evenodd"/><path d="M368 319.394C368 316.909 370.015 314.895 372.5 314.895 374.985 314.895 377 316.909 377 319.394 377 321.878 374.985 323.892 372.5 323.892 370.015 323.892 368 321.878 368 319.394Z" fill="#9CA5B5" fill-rule="evenodd"/><path d="M403 296.401C403 293.917 405.015 291.903 407.5 291.903 409.985 291.903 412 293.917 412 296.401 412 298.886 409.985 300.9 407.5 300.9 405.015 300.9 403 298.886 403 296.401Z" fill="#BA91B1" fill-rule="evenodd"/><path d="M0 0 25.6997 10.3908" stroke="#4472C4" stroke-width="0.666667" stroke-miterlimit="8" fill="none" fill-rule="evenodd" transform="matrix(1.00033 0 0 -1 308.5 275.802)"/><path d="M0 0 28.2548 26.1223" stroke="#4472C4" stroke-width="0.666667" stroke-miterlimit="8" fill="none" fill-rule="evenodd" transform="matrix(1.00033 0 0 -1 307.5 294.533)"/><path d="M0 0 28.6825 48.3723" stroke="#4472C4" stroke-width="0.666667" stroke-miterlimit="8" fill="none" fill-rule="evenodd" transform="matrix(1.00033 0 0 -1 306.5 316.783)"/><path d="M308.5 276.408 334.208 286.093" stroke="#4472C4" stroke-width="0.666889" stroke-miterlimit="8" fill="none" fill-rule="evenodd"/><path d="M307.5 279.407 335.764 306.804" stroke="#4472C4" stroke-width="0.666889" stroke-miterlimit="8" fill="none" fill-rule="evenodd"/><path d="M307.5 279.407 335.764 327.851" stroke="#4472C4" stroke-width="0.666889" stroke-miterlimit="8" fill="none" fill-rule="evenodd"/><path d="M307.5 300.4 335.764 327.425" stroke="#4472C4" stroke-width="0.666889" stroke-miterlimit="8" fill="none" fill-rule="evenodd"/><path d="M307.5 300.4 334.061 309.816" stroke="#4472C4" stroke-width="0.666889" stroke-miterlimit="8" fill="none" fill-rule="evenodd"/><path d="M0 0 25.6016 9.61407" stroke="#4472C4" stroke-width="0.666667" stroke-miterlimit="8" fill="none" fill-rule="evenodd" transform="matrix(1.00033 0 0 -1 308.5 320.011)"/><path d="M308.5 319.394 334.636 330.826" stroke="#4472C4" stroke-width="0.666889" stroke-miterlimit="8" fill="none" fill-rule="evenodd"/><path d="M0 0 28.6825 27.3258" stroke="#4472C4" stroke-width="0.666667" stroke-miterlimit="8" fill="none" fill-rule="evenodd" transform="matrix(1.00033 0 0 -1 306.5 316.729)"/><path d="M0 0 26.3841 9.4085" stroke="#4472C4" stroke-width="0.666667" stroke-miterlimit="8" fill="none" fill-rule="evenodd" transform="matrix(1.00033 0 0 -1 342.5 285.816)"/><path d="M0 0 28.9392 27.1203" stroke="#4472C4" stroke-width="0.666667" stroke-miterlimit="8" fill="none" fill-rule="evenodd" transform="matrix(1.00033 0 0 -1 341.5 306.527)"/><path d="M0 0 28.9392 48.1667" stroke="#4472C4" stroke-width="0.666667" stroke-miterlimit="8" fill="none" fill-rule="evenodd" transform="matrix(1.00033 0 0 -1 341.5 327.574)"/><path d="M0 0 28.9392 26.7476" stroke="#4472C4" stroke-width="0.666667" stroke-miterlimit="8" fill="none" fill-rule="evenodd" transform="matrix(1.00033 0 0 -1 341.5 328.147)"/><path d="M0 0 25.9564 11.1555" stroke="#4472C4" stroke-width="0.666667" stroke-miterlimit="8" fill="none" fill-rule="evenodd" transform="matrix(1.00033 0 0 -1 342.5 331.549)"/><path d="M342.5 310.397 368.465 320.288" stroke="#4472C4" stroke-width="0.666889" stroke-miterlimit="8" fill="none" fill-rule="evenodd"/><path d="M341.5 289.404 370.021 317.006" stroke="#4472C4" stroke-width="0.666889" stroke-miterlimit="8" fill="none" fill-rule="evenodd"/><path d="M341.5 268.411 370.021 317.06" stroke="#4472C4" stroke-width="0.666889" stroke-miterlimit="8" fill="none" fill-rule="evenodd"/><path d="M341.5 289.404 369.171 298.085" stroke="#4472C4" stroke-width="0.666889" stroke-miterlimit="8" fill="none" fill-rule="evenodd"/><path d="M341.5 268.411 369.339 295.02" stroke="#4472C4" stroke-width="0.666889" stroke-miterlimit="8" fill="none" fill-rule="evenodd"/><path d="M342.5 264.412 368.893 276.05" stroke="#4472C4" stroke-width="0.666889" stroke-miterlimit="8" fill="none" fill-rule="evenodd"/><path d="M376.5 279.407 404.786 293.5" stroke="#4472C4" stroke-width="0.666889" stroke-miterlimit="8" fill="none" fill-rule="evenodd"/><path d="M0 0 25.7215 0.668136" stroke="#4472C4" stroke-width="0.666667" stroke-miterlimit="8" fill="none" fill-rule="evenodd" transform="matrix(1.00033 0 0 -1 378.5 298.069)"/><path d="M0 0 28.7043 16.2603" stroke="#4472C4" stroke-width="0.666667" stroke-miterlimit="8" fill="none" fill-rule="evenodd" transform="matrix(1.00033 0 0 -1 376.5 316.66)"/><path d="M446.5 281.073C446.5 277.392 456.797 274.409 469.5 274.409 482.203 274.409 492.5 277.392 492.5 281.073L492.5 307.731C492.5 311.412 482.203 314.395 469.5 314.395 456.797 314.395 446.5 311.412 446.5 307.731Z" fill="#DAE3F3" fill-rule="evenodd"/><path d="M492.5 281.073C492.5 284.754 482.203 287.738 469.5 287.738 456.797 287.738 446.5 284.754 446.5 281.073" stroke="#A6A6A6" stroke-width="1.33378" stroke-miterlimit="8" fill="none" fill-rule="evenodd"/><path d="M446.5 281.073C446.5 277.392 456.797 274.409 469.5 274.409 482.203 274.409 492.5 277.392 492.5 281.073L492.5 307.731C492.5 311.412 482.203 314.395 469.5 314.395 456.797 314.395 446.5 311.412 446.5 307.731Z" stroke="#A6A6A6" stroke-width="1.33378" stroke-miterlimit="8" fill="none" fill-rule="evenodd"/><text font-family="Yu Gothic,Yu Gothic_MSFontService,sans-serif" font-weight="700" font-size="14.6667" transform="matrix(1 0 0 0.999667 454.097 294)">推論</text><text font-family="Yu Gothic,Yu Gothic_MSFontService,sans-serif" font-weight="700" font-size="14.6667" transform="matrix(1 0 0 0.999667 454.097 311)">結果</text><path d="M0.00789766-0.66662 21.8496-0.407854 21.8338 0.925386-0.00789766 0.66662ZM20.5559-3.75675 28.5079 0.337743 20.4611 4.24269Z" transform="matrix(1.00033 0 0 -1 418.5 296.739)"/><path d="M213.5 283.905C213.5 280.317 223.797 277.408 236.5 277.408 249.203 277.408 259.5 280.317 259.5 283.905L259.5 309.897C259.5 313.486 249.203 316.395 236.5 316.395 223.797 316.395 213.5 313.486 213.5 309.897Z" fill="#FFCCFF" fill-rule="evenodd" fill-opacity="0.501961"/><path d="M259.5 283.905C259.5 287.494 249.203 290.403 236.5 290.403 223.797 290.403 213.5 287.494 213.5 283.905" stroke="#A6A6A6" stroke-width="1.33378" stroke-miterlimit="8" fill="none" fill-rule="evenodd"/><path d="M213.5 283.905C213.5 280.317 223.797 277.408 236.5 277.408 249.203 277.408 259.5 280.317 259.5 283.905L259.5 309.897C259.5 313.486 249.203 316.395 236.5 316.395 223.797 316.395 213.5 313.486 213.5 309.897Z" stroke="#A6A6A6" stroke-width="1.33378" stroke-miterlimit="8" fill="none" fill-rule="evenodd"/><text font-family="Yu Gothic,Yu Gothic_MSFontService,sans-serif" font-weight="700" font-size="14.6667" transform="matrix(1 0 0 0.999667 221.568 296)">入力</text><text font-family="Yu Gothic,Yu Gothic_MSFontService,sans-serif" font-weight="700" font-size="14.6667" transform="matrix(1 0 0 0.999667 214.233 313)">データ</text><path d="M0.00789766-0.66662 21.8496-0.407854 21.8338 0.925386-0.00789766 0.66662ZM20.5559-3.75675 28.5079 0.337743 20.4611 4.24269Z" transform="matrix(1.00033 0 0 -1 259.5 296.739)"/><path d="M299.5 260.413C299.5 255.444 302.754 251.416 306.769 251.416L348.731 251.416C352.746 251.416 356 247.388 356 242.419 356 247.388 359.254 251.416 363.269 251.416L405.231 251.416C409.246 251.416 412.5 255.444 412.5 260.413" stroke="#000000" stroke-width="1.33333" stroke-miterlimit="8" fill="none" fill-rule="evenodd"/><text font-family="Yu Gothic,Yu Gothic_MSFontService,sans-serif" font-weight="700" font-size="14.6667" transform="matrix(1 0 0 0.999667 364.443 122)">学習</text><text font-family="Yu Gothic,Yu Gothic_MSFontService,sans-serif" font-weight="700" font-size="14.6667" transform="matrix(1 0 0 0.999667 347.9 240)">推論</text><path d="M88.5 213.429C83.5294 213.429 79.4999 210.176 79.4999 206.163L79.4999 148.22C79.4999 144.206 75.4704 140.953 70.4998 140.953 75.4704 140.953 79.4999 137.7 79.4999 133.687L79.4999 75.7436C79.4999 71.7305 83.5294 68.4772 88.5 68.4772" stroke="#000000" stroke-width="1.33378" stroke-miterlimit="8" fill="none" fill-rule="evenodd"/><path d="M88.5 333.389C83.5294 333.389 79.4999 330.136 79.4999 326.123L79.4999 285.174C79.4999 281.161 75.4705 277.908 70.4999 277.908 75.4705 277.908 79.4999 274.654 79.4999 270.641L79.4999 229.692C79.4999 225.679 83.5294 222.426 88.5 222.426" stroke="#000000" stroke-width="1.33378" stroke-miterlimit="8" fill="none" fill-rule="evenodd"/><text font-family="Yu Gothic,Yu Gothic_MSFontService,sans-serif" font-weight="700" font-size="14.6667" transform="matrix(1 0 0 0.999667 35.5585 276)">推論</text><text font-family="Yu Gothic,Yu Gothic_MSFontService,sans-serif" font-weight="700" font-size="14.6667" transform="matrix(1 0 0 0.999667 6.2154 293)">フェーズ</text><text font-family="Yu Gothic,Yu Gothic_MSFontService,sans-serif" font-weight="700" font-size="14.6667" transform="matrix(1 0 0 0.999667 36.0136 139)">学習</text><text font-family="Yu Gothic,Yu Gothic_MSFontService,sans-serif" font-weight="700" font-size="14.6667" transform="matrix(1 0 0 0.999667 6.67046 156)">フェーズ</text><path d="M439.133 291.706 261.703 206.451 263.437 202.845 440.867 288.101ZM268.699 217.276 258.992 202.928 276.263 201.544C277.364 201.456 278.329 202.277 278.417 203.378 278.505 204.479 277.684 205.443 276.583 205.531L262.73 206.642 264.227 203.528 272.013 215.035C272.632 215.95 272.392 217.194 271.477 217.812 270.561 218.431 269.318 218.191 268.699 217.276Z" fill="#C55A11" fill-opacity="0.2"/><path d="M446.28 310.434 439.315 316.233 432.41 321.579 425.589 326.463 418.846 330.897 412.179 334.896 405.585 338.473 399.059 341.64 392.6 344.41 386.203 346.796 379.843 348.82 367.366 351.788 355.074 353.439 342.974 353.877 331.044 353.216 319.261 351.567 307.601 349.046 296.037 345.767 284.541 341.841 273.082 337.382 261.633 332.5 253.783 328.946 255.434 325.302 263.263 328.848 263.223 328.83 274.623 333.69 274.563 333.666 285.953 338.099 285.874 338.07 297.281 341.964 297.18 341.933 308.632 345.181 308.509 345.15 320.035 347.642 319.889 347.616 331.515 349.243 331.349 349.226 343.104 349.878 342.92 349.877 354.832 349.445 354.638 349.461 366.734 347.837 366.537 347.873 378.845 344.946 378.701 344.986 384.943 343 384.85 343.032 391.156 340.679 391.067 340.715 397.439 337.982 397.354 338.021 403.797 334.894 403.716 334.935 410.233 331.401 410.158 331.444 416.752 327.489 416.682 327.533 423.356 323.143 423.291 323.187 430.05 318.349 429.99 318.394 436.837 313.093 436.782 313.137 443.72 307.36ZM261.022 339.61 250.992 325.486 268.227 323.71C269.326 323.597 270.309 324.395 270.422 325.494 270.536 326.593 269.736 327.575 268.637 327.689L254.814 329.113 256.24 325.966 264.285 337.294C264.924 338.195 264.713 339.443 263.812 340.083 262.911 340.722 261.662 340.51 261.022 339.61Z" fill="#FF00FF" fill-opacity="0.101961"/><path d="M91.5 138.454C91.5 136.246 93.2909 134.455 95.5001 134.455L115.5 134.455C117.709 134.455 119.5 136.246 119.5 138.454L119.5 154.449C119.5 156.657 117.709 158.447 115.5 158.447L95.5001 158.447C93.2909 158.447 91.5 156.657 91.5 154.449Z" stroke="#172C51" stroke-width="1.33378" stroke-miterlimit="8" stroke-dasharray="5.33511 4.00133" fill="#F2F2F2" fill-rule="evenodd"/><text font-family="Yu Gothic,Yu Gothic_MSFontService,sans-serif" font-weight="700" font-size="14.6667" transform="matrix(1 0 0 0.999667 97.5267 151)">人</text><path d="M206.5 198.101 201.165 198.101 201.165 196.768 206.5 196.768ZM197.164 198.101 191.828 198.101 191.828 196.768 197.164 196.768ZM187.827 198.101 182.492 198.101 182.492 196.768 187.827 196.768ZM178.491 198.101 173.156 198.101 173.156 196.768 178.491 196.768ZM169.154 198.101 163.819 198.101 163.819 196.768 169.154 196.768ZM159.818 198.101 154.483 198.101 154.483 196.768 159.818 196.768ZM150.481 198.101 145.146 198.101 145.146 196.768 150.481 196.768ZM141.145 198.101 135.81 198.101 135.81 196.768 141.145 196.768ZM131.808 198.101 126.473 198.101 126.473 196.768 131.808 196.768ZM122.472 198.101 117.137 198.101 117.137 196.768 122.472 196.768ZM113.136 198.101 107.8 198.101 107.8 196.768 113.136 196.768ZM104.833 195.734 104.833 190.401 106.167 190.401 106.167 195.734ZM104.833 186.401 104.833 181.067 106.167 181.067 106.167 186.401ZM104.833 177.067 104.833 171.734 106.167 171.734 106.167 177.067ZM104.833 167.734 104.833 165.114 106.167 165.114 106.167 167.734ZM101.499 166.447 105.5 158.447 109.501 166.447Z" fill="#172C51"/><path d="M105.833 133.456 105.833 128.122 107.167 128.122 107.167 133.456ZM105.833 124.122 105.833 118.789 107.167 118.789 107.167 124.122ZM105.833 114.789 105.833 109.456 107.167 109.456 107.167 114.789ZM105.833 105.456 105.833 100.122 107.167 100.122 107.167 105.456ZM105.833 96.1223 105.833 90.7889 107.167 90.7889 107.167 96.1223ZM109.182 88.8036 114.517 88.8036 114.517 90.137 109.182 90.137ZM118.519 88.8036 123.854 88.8036 123.854 90.137 118.519 90.137ZM127.855 88.8036 133.19 88.8036 133.19 90.137 127.855 90.137ZM137.192 88.8036 142.527 88.8036 142.527 90.137 137.192 90.137ZM146.528 88.8036 151.863 88.8036 151.863 90.137 146.528 90.137ZM155.864 88.8036 161.199 88.8036 161.199 90.137 155.864 90.137ZM165.201 88.8036 170.536 88.8036 170.536 90.137 165.201 90.137ZM174.537 88.8036 179.872 88.8036 179.872 90.137 174.537 90.137ZM183.874 88.8036 189.209 88.8036 189.209 90.137 183.874 90.137ZM193.21 88.8036 198.545 88.8036 198.545 90.137 193.21 90.137ZM197.497 85.4703 205.5 89.4703 197.497 93.4703Z" fill="#172C51"/><path d="M95.5 58.4805C95.5 54.6158 98.0312 51.4828 101.154 51.4828L173.846 51.4828C176.969 51.4828 179.5 48.3499 179.5 44.4851 179.5 48.3499 182.031 51.4828 185.154 51.4828L257.846 51.4828C260.969 51.4828 263.5 54.6158 263.5 58.4805" stroke="#000000" stroke-width="1.33333" stroke-miterlimit="8" fill="none" fill-rule="evenodd"/><text font-family="Yu Gothic,Yu Gothic_MSFontService,sans-serif" font-weight="700" font-size="14.6667" transform="matrix(1 0 0 0.999667 149.08 22)">人の推論</text><text font-family="Yu Gothic,Yu Gothic_MSFontService,sans-serif" font-weight="700" font-size="14.6667" transform="matrix(1 0 0 0.999667 156.416 39)">の再生</text></g></svg>