<svg width="633" height="208" xmlns="http://www.w3.org/2000/svg" xmlns:xlink="http://www.w3.org/1999/xlink" overflow="hidden"><defs><clipPath id="clip0"><rect x="0" y="0" width="633" height="208"/></clipPath></defs><g clip-path="url(#clip0)"><rect x="0" y="0" width="633" height="208.167" fill="#FFFFFF"/><rect x="45.5001" y="8.50687" width="151" height="152.122" stroke="#172C51" stroke-width="1.33333" stroke-miterlimit="8" stroke-dasharray="5.33333 4" fill="none"/><path d="M47.5001 160.629 196.5 8.50687" stroke="#172C51" stroke-width="3" stroke-miterlimit="8" fill="none" fill-rule="evenodd"/><path d="M47.5001 160.629C90.8639 184.224 144.06 192.172 196.5 162.119" stroke="#172C51" stroke-width="1.33333" stroke-miterlimit="8" fill="none" fill-rule="evenodd"/><text font-family="Calibri,Calibri_MSFontService,sans-serif" font-weight="700" font-size="14.6784" transform="matrix(1 0 0 1.0008 119.007 201)">1</text><path d="M0 0C43.3638 24.6989 96.5601 33.0185 149 1.56" stroke="#172C51" stroke-width="1.33333" stroke-miterlimit="8" fill="none" fill-rule="evenodd" transform="matrix(-6.12323e-17 -1.0008 -1 6.12814e-17 44.5001 159.628)"/><text font-family="Calibri,Calibri_MSFontService,sans-serif" font-weight="700" font-size="14.6784" transform="matrix(1 0 0 1.0008 7.78362 92)">1</text><rect x="257.5" y="9.50767" width="151" height="151.121" stroke="#172C51" stroke-width="1.33333" stroke-miterlimit="8" stroke-dasharray="5.33333 4" fill="none"/><path d="M258.5 161.63 407.5 9.50767" stroke="#172C51" stroke-width="3" stroke-miterlimit="8" fill="none" fill-rule="evenodd"/><path d="M47.5001 160.629 122.127 160.629 122.127 84.0674 197.5 84.0674 197.5 7.50607" stroke="#A6A6A6" stroke-width="3" stroke-miterlimit="8" fill="none" fill-rule="evenodd"/><path d="M256.5 160.629 294.136 160.629 294.136 122.462 332.864 122.462 332.864 84.2952 370.5 84.2952 370.5 46.6737 406.5 46.6737 406.5 8.50687" stroke="#A6A6A6" stroke-width="3" stroke-miterlimit="8" fill="none" fill-rule="evenodd"/><path d="M209.5 76.061 228.5 76.061 228.5 67.5542 245.5 84.5678 228.5 101.581 228.5 93.0746 209.5 93.0746Z" stroke="#172C51" stroke-width="1.33333" stroke-miterlimit="8" fill="none" fill-rule="evenodd"/><rect x="469.5" y="9.50767" width="151" height="151.121" stroke="#172C51" stroke-width="1.33333" stroke-miterlimit="8" stroke-dasharray="5.33333 4" fill="none"/><path d="M470.5 161.63 619.5 9.50767" stroke="#172C51" stroke-width="3" stroke-miterlimit="8" fill="none" fill-rule="evenodd"/><path d="M421.5 76.061 440.5 76.061 440.5 67.5542 457.5 84.5678 440.5 101.581 440.5 93.0746 421.5 93.0746Z" stroke="#172C51" stroke-width="1.33333" stroke-miterlimit="8" fill="none" fill-rule="evenodd"/><path d="M468.5 161.63 487.637 161.63 487.637 145.429 506.773 145.429 506.773 125.933 525.363 125.933 525.91 128.404 525.91 106.437 544.773 106.437 544.773 87.4907 563.637 87.4907 563.637 67.1712 582.5 67.1712 582.5 48.7738 601.637 48.7738 601.637 28.7288 620.5 28.7288 620.5 9.50767" stroke="#A6A6A6" stroke-width="3" stroke-miterlimit="8" fill="none" fill-rule="evenodd"/></g></svg>