<svg width="680" height="378" xmlns="http://www.w3.org/2000/svg" xmlns:xlink="http://www.w3.org/1999/xlink" overflow="hidden"><defs><clipPath id="clip0"><rect x="0" y="0" width="680" height="378"/></clipPath></defs><g clip-path="url(#clip0)"><rect x="0" y="0" width="680" height="378.185" fill="#FFFFFF"/><g><g><g><g><path d="M0 0 665 0 665 354.928 0 354.928Z" fill="#FFFFFF" transform="matrix(1 0 0 1.0011 7.99996 7.00346)"/><text font-family="Cambria Math,Cambria Math_MSFontService,sans-serif" font-weight="400" font-size="32.0176" transform="matrix(0.58642 0 0 0.587299 41.1394 110)">ğ‘©</text><path d="M53.7216 3.54503C55.5063 4.01564 56.8769 5.03175 57.8334 6.59335 58.7898 8.15493 59.2683 10.0389 59.2683 12.2453 59.2683 14.4578 58.7915 16.3418 57.838 17.8973 56.8845 19.4528 55.5124 20.4658 53.7216 20.9365L53.5016 20.2305C54.9135 19.7599 55.9632 18.8309 56.6507 17.4435 57.3384 16.0561 57.6821 14.2928 57.6821 12.1537 57.6821 10.0878 57.3399 8.3719 56.6554 7.0059 55.9708 5.63989 54.9104 4.72157 53.4741 4.25096ZM24.6747 3.54503 24.9222 4.25096C23.492 4.72157 22.4331 5.63989 21.7455 7.0059 21.0579 8.3719 20.7141 10.0878 20.7141 12.1537 20.7141 14.2928 21.0579 16.0561 21.7455 17.4435 22.4331 18.8309 23.4828 19.7599 24.8947 20.2305L24.6747 20.9365C22.8839 20.4658 21.5118 19.4528 20.5583 17.8973 19.6048 16.3418 19.1281 14.4578 19.1281 12.2453 19.1281 10.0389 19.6064 8.15493 20.5629 6.59335 21.5194 5.03175 22.89 4.01564 24.6747 3.54503Z" fill-rule="evenodd" transform="matrix(1 0 0 1.0015 37.2489 92.891)"/><text fill="#00B050" font-family="Cambria Math,Cambria Math_MSFontService,sans-serif" font-weight="400" font-size="32.0176" transform="matrix(0.58642 0 0 0.587299 62.5156 110)">ğ’™</text><text font-family="Cambria Math,Cambria Math_MSFontService,sans-serif" font-weight="400" font-size="32.0176" transform="matrix(0.58642 0 0 0.587299 73.3658 110)">,</text><text font-family="Cambria Math,Cambria Math_MSFontService,sans-serif" font-weight="400" font-size="32.0176" transform="matrix(0.58642 0 0 0.587299 80.3061 110)">ğ’“</text><text font-family="Cambria Math,Cambria Math_MSFontService,sans-serif" font-weight="400" font-size="32.0176" transform="matrix(0.58642 0 0 0.587299 103.375 110)">=</text><path d="M236.795 3.49662 237.033 3.49662C238.469 3.52107 239.544 3.84959 240.256 4.48216 240.967 5.11475 241.323 6.06669 241.323 7.33793 241.323 7.84524 241.252 8.42281 241.108 9.07068 240.965 9.71856 240.892 10.1525 240.892 10.3725 240.892 10.7942 241.038 11.138 241.328 11.4039 241.618 11.6698 242.057 11.8118 242.643 11.8302L242.643 12.582C242.057 12.6003 241.618 12.7424 241.328 13.0083 241.038 13.2741 240.892 13.618 240.892 14.0397 240.892 14.2597 240.965 14.6936 241.108 15.3415 241.252 15.9894 241.323 16.5669 241.323 17.0742 241.323 18.3883 240.967 19.3616 240.256 19.9942 239.544 20.6268 238.469 20.9553 237.033 20.9798L236.795 20.9798 236.795 20.283 236.932 20.283C237.818 20.283 238.512 20.0523 239.014 19.5908 239.514 19.1294 239.765 18.3455 239.765 17.2392 239.765 16.8114 239.704 16.2827 239.582 15.6532 239.459 15.0237 239.398 14.5745 239.398 14.3055 239.398 13.786 239.551 13.3597 239.857 13.0266 240.162 12.6935 240.526 12.4475 240.948 12.2886L240.948 12.1236C240.526 11.9647 240.162 11.7187 239.857 11.3856 239.551 11.0525 239.398 10.6262 239.398 10.1067 239.398 9.83772 239.459 9.38852 239.582 8.759 239.704 8.12942 239.765 7.60076 239.765 7.17291 239.765 6.10944 239.514 5.347 239.014 4.88555 238.512 4.4241 237.818 4.19338 236.932 4.19338L236.795 4.19338ZM91.7987 3.49662 92.0368 3.49662 92.0368 4.19338 91.8996 4.19338C91.0135 4.19338 90.3198 4.4241 89.8184 4.88555 89.3176 5.347 89.0666 6.10639 89.0666 7.16376 89.0666 7.59161 89.1276 8.12027 89.2502 8.74979 89.3721 9.37931 89.4337 9.82857 89.4337 10.0975 89.4337 10.617 89.2806 11.0433 88.9751 11.3764 88.6696 11.7095 88.306 11.9555 87.8838 12.1144L87.8838 12.2795C88.306 12.4383 88.6696 12.6843 88.9751 13.0175 89.2806 13.3505 89.4337 13.7769 89.4337 14.2964 89.4337 14.5653 89.3721 15.0145 89.2502 15.644 89.1276 16.2736 89.0666 16.8022 89.0666 17.2301 89.0666 18.3424 89.3176 19.1294 89.8184 19.5908 90.3198 20.0523 91.0135 20.283 91.8996 20.283L92.0368 20.283 92.0368 20.9798 91.7987 20.9798C90.3626 20.9553 89.2883 20.6268 88.5764 19.9942 87.8644 19.3616 87.5079 18.3852 87.5079 17.0651 87.5079 16.5577 87.58 15.9802 87.7237 15.3324 87.8674 14.6845 87.9389 14.2505 87.9389 14.0305 87.9389 13.6087 87.7941 13.265 87.5038 12.9991 87.2135 12.7332 86.7749 12.5911 86.1879 12.5728L86.1879 11.821C86.7749 11.8027 87.2135 11.6606 87.5038 11.3947 87.7941 11.1288 87.9389 10.7851 87.9389 10.3633 87.9389 10.1433 87.8674 9.70935 87.7237 9.06153 87.58 8.41366 87.5079 7.83609 87.5079 7.32878 87.5079 6.06364 87.8644 5.11475 88.5764 4.48216 89.2883 3.84959 90.3626 3.52107 91.7987 3.49662Z" fill-rule="evenodd" transform="matrix(1 0 0 1.0015 37.2489 92.891)"/><text fill="#C55A11" font-family="Cambria Math,Cambria Math_MSFontService,sans-serif" font-weight="400" font-size="32.0176" transform="matrix(0.58642 0 0 0.587299 129.835 110)">ğ’š</text><text font-family="Cambria Math,Cambria Math_MSFontService,sans-serif" font-weight="400" font-size="32.0176" transform="matrix(0.58642 0 0 0.587299 146.288 110)">âˆˆ</text><text font-family="Cambria Math,Cambria Math_MSFontService,sans-serif" font-weight="400" font-size="32.0176" transform="matrix(0.58642 0 0 0.587299 163.231 110)">ğ‘¿</text><text font-family="Cambria Math,Cambria Math_MSFontService,sans-serif" font-weight="400" font-size="32.0176" transform="matrix(0.58642 0 0 0.587299 176.231 110)">|</text><text font-family="Cambria Math,Cambria Math_MSFontService,sans-serif" font-weight="400" font-size="32.0176" transform="matrix(0.58642 0 0 0.587299 182.194 110)">ğ’…</text><path d="M194.483 3.54503C196.268 4.01564 197.638 5.03175 198.595 6.59335 199.552 8.15493 200.03 10.0389 200.03 12.2453 200.03 14.4578 199.553 16.3418 198.599 17.8973 197.646 19.4528 196.274 20.4658 194.483 20.9365L194.263 20.2305C195.675 19.7599 196.724 18.8309 197.412 17.4435 198.1 16.0561 198.444 14.2928 198.444 12.1537 198.444 10.0878 198.101 8.3719 197.417 7.0059 196.732 5.63989 195.672 4.72157 194.236 4.25096ZM164.263 3.54503 164.511 4.25096C163.08 4.72157 162.021 5.63989 161.334 7.0059 160.646 8.3719 160.303 10.0878 160.303 12.1537 160.303 14.2928 160.646 16.0561 161.334 17.4435 162.021 18.8309 163.071 19.7599 164.483 20.2305L164.263 20.9365C162.472 20.4658 161.1 19.4528 160.147 17.8973 159.193 16.3418 158.716 14.4578 158.716 12.2453 158.716 10.0389 159.195 8.15493 160.151 6.59335 161.108 5.03175 162.478 4.01564 164.263 3.54503Z" fill-rule="evenodd" transform="matrix(1 0 0 1.0015 37.2489 92.891)"/><text fill="#00B050" font-family="Cambria Math,Cambria Math_MSFontService,sans-serif" font-weight="400" font-size="32.0176" transform="matrix(0.58642 0 0 0.587299 202.104 110)">ğ’™</text><text font-family="Cambria Math,Cambria Math_MSFontService,sans-serif" font-weight="400" font-size="32.0176" transform="matrix(0.58642 0 0 0.587299 212.954 110)">,</text><text fill="#C55A11" font-family="Cambria Math,Cambria Math_MSFontService,sans-serif" font-weight="400" font-size="32.0176" transform="matrix(0.58642 0 0 0.587299 219.895 110)">ğ’š</text><text font-family="Cambria Math,Cambria Math_MSFontService,sans-serif" font-weight="400" font-size="32.0176" transform="matrix(0.58642 0 0 0.587299 244.137 110)">&lt;</text><text font-family="Cambria Math,Cambria Math_MSFontService,sans-serif" font-weight="400" font-size="32.0176" transform="matrix(0.58642 0 0 0.587299 263.425 110)">ğ’“</text><text fill="#00B050" font-family="Cambria Math,Cambria Math_MSFontService,sans-serif" font-weight="400" font-size="32.0176" transform="matrix(0.58642 0 0 0.587299 202.173 79)">ğ‘¼</text><text fill="#C55A11" font-family="Cambria Math,Cambria Math_MSFontService,sans-serif" font-weight="400" font-size="32.0176" transform="matrix(0.58642 0 0 0.587299 127.274 150)">ğ‘¿</text><text font-family="Cambria Math,Cambria Math_MSFontService,sans-serif" font-weight="400" font-size="32.0176" transform="matrix(-1.07724e-16 -0.58754 0.586183 -1.07885e-16 213.677 94)">âˆˆ</text><text fill="#00B050" font-family="Cambria Math,Cambria Math_MSFontService,sans-serif" font-weight="400" font-size="32.0176" transform="matrix(0.58642 0 0 0.587299 61.9326 79)">ğ‘¼</text><text font-family="Cambria Math,Cambria Math_MSFontService,sans-serif" font-weight="400" font-size="32.0176" transform="matrix(-1.07724e-16 -0.58754 0.586183 -1.07885e-16 73.4368 94)">âˆˆ</text><text font-family="Cambria Math,Cambria Math_MSFontService,sans-serif" font-weight="400" font-size="32.0176" transform="matrix(3.59078e-17 0.58754 -0.586183 3.59619e-17 128.12 121)">âˆˆ</text><text fill="#C55A11" font-family="Cambria Math,Cambria Math_MSFontService,sans-serif" font-weight="400" font-size="32.0176" transform="matrix(0.58642 0 0 0.587299 218.628 148)">ğ‘¿</text><text font-family="Cambria Math,Cambria Math_MSFontService,sans-serif" font-weight="400" font-size="32.0176" transform="matrix(3.59078e-17 0.58754 -0.586183 3.59619e-17 219.475 119)">âˆˆ</text><text font-family="Yu Gothic,Yu Gothic_MSFontService,sans-serif" font-weight="700" font-size="32.0176" transform="matrix(0.58642 0 0 0.587299 25.258 43)">éƒ¨åˆ†é›†åˆ</text><text font-family="Cambria Math,Cambria Math_MSFontService,sans-serif" font-weight="400" font-size="32.0176" transform="matrix(0.58642 0 0 0.587299 100.331 43)">ğ‘¼</text><text font-family="Cambria Math,Cambria Math_MSFontService,sans-serif" font-weight="400" font-size="32.0176" transform="matrix(0.58642 0 0 0.587299 119.228 43)">âŠ‚</text><text font-family="Cambria Math,Cambria Math_MSFontService,sans-serif" font-weight="400" font-size="32.0176" transform="matrix(0.58642 0 0 0.587299 138.419 43)">ğ‘¿</text><text font-family="Yu Gothic,Yu Gothic_MSFontService,sans-serif" font-weight="700" font-size="32.0176" transform="matrix(0.58642 0 0 0.587299 155.525 43)">ã®</text><text font-family="Yu Gothic,Yu Gothic_MSFontService,sans-serif" font-weight="700" font-size="32.0176" transform="matrix(0.58642 0 0 0.587299 174.301 43)">é–‹çƒ</text><path d="M29.9074 157.811 279.136 157.811 279.136 338.501 29.9074 338.501Z" fill="#C55A11" fill-opacity="0.301961" transform="matrix(1 0 0 1.0011 7.99996 7.00346)"/><text fill="#C55A11" font-family="Cambria Math,Cambria Math_MSFontService,sans-serif" font-weight="400" font-size="32.0176" transform="matrix(0.58642 0 0 0.587299 46.5012 186)">ğ‘¿</text><path d="M67.4383 288.607C67.4383 263.325 137.965 233.326 167.481 221.904 196.997 210.481 244.537 194.79 244.537 220.072 244.537 245.355 196.997 302.035 167.481 313.457 137.965 324.88 67.4383 313.889 67.4383 288.607Z" stroke="#00B050" stroke-width="2.34602" stroke-miterlimit="8" fill="#00B050" fill-rule="evenodd" fill-opacity="0.301961" transform="matrix(1 0 0 1.0011 7.99996 7.00346)"/><path d="M112.299 232.316C112.299 213.362 127.658 197.996 146.605 197.996 165.552 197.996 180.91 213.362 180.91 232.316 180.91 251.27 165.552 266.636 146.605 266.636 127.658 266.636 112.299 251.27 112.299 232.316Z" stroke="#00B050" stroke-width="1.75952" stroke-miterlimit="8" stroke-dasharray="1.75952 1.75952" fill="none" fill-rule="evenodd" transform="matrix(1 0 0 1.0011 7.99996 7.00346)"/><path d="M119.336 232.023C119.336 217.118 131.414 205.036 146.312 205.036 161.21 205.036 173.287 217.118 173.287 232.023 173.287 246.927 161.21 259.009 146.312 259.009 131.414 259.009 119.336 246.927 119.336 232.023Z" stroke="#00B050" stroke-width="1.75952" stroke-miterlimit="8" stroke-dasharray="1.75952 1.75952" fill="none" fill-rule="evenodd" transform="matrix(1 0 0 1.0011 7.99996 7.00346)"/><path d="M126.96 232.023C126.96 221.331 135.755 212.663 146.605 212.663 157.455 212.663 166.25 221.331 166.25 232.023 166.25 242.715 157.455 251.382 146.605 251.382 135.755 251.382 126.96 242.715 126.96 232.023Z" stroke="#00B050" stroke-width="1.75952" stroke-miterlimit="8" stroke-dasharray="1.75952 1.75952" fill="none" fill-rule="evenodd" transform="matrix(1 0 0 1.0011 7.99996 7.00346)"/><path d="M134.583 232.023C134.583 225.543 139.834 220.29 146.312 220.29 152.789 220.29 158.04 225.543 158.04 232.023 158.04 238.503 152.789 243.756 146.312 243.756 139.834 243.756 134.583 238.503 134.583 232.023Z" stroke="#00B050" stroke-width="1.75952" stroke-miterlimit="8" stroke-dasharray="1.75952 1.75952" fill="none" fill-rule="evenodd" transform="matrix(1 0 0 1.0011 7.99996 7.00346)"/><path d="M142.793 232.316C142.793 230.21 144.5 228.503 146.605 228.503 148.71 228.503 150.417 230.21 150.417 232.316 150.417 234.422 148.71 236.13 146.605 236.13 144.5 236.13 142.793 234.422 142.793 232.316Z" stroke="#00B050" stroke-width="0.782008" stroke-miterlimit="8" stroke-dasharray="0.782008 0.782008" fill="#00B050" fill-rule="evenodd" transform="matrix(1 0 0 1.0011 7.99996 7.00346)"/><text font-family="Yu Gothic,Yu Gothic_MSFontService,sans-serif" font-weight="700" font-size="32.0176" transform="matrix(0.58642 0 0 0.587299 347.967 43)">å…¨ä½“é›†åˆ</text><text font-family="Cambria Math,Cambria Math_MSFontService,sans-serif" font-weight="400" font-size="32.0176" transform="matrix(0.58642 0 0 0.587299 427.243 43)">ğ‘¿</text><text font-family="Yu Gothic,Yu Gothic_MSFontService,sans-serif" font-weight="700" font-size="32.0176" transform="matrix(0.58642 0 0 0.587299 444.349 43)">ã®</text><text font-family="Yu Gothic,Yu Gothic_MSFontService,sans-serif" font-weight="700" font-size="32.0176" transform="matrix(0.58642 0 0 0.587299 463.125 43)">é–‹çƒ</text><text font-family="Cambria Math,Cambria Math_MSFontService,sans-serif" font-weight="400" font-size="32.0176" transform="matrix(0.58642 0 0 0.587299 364.758 110)">ğ‘©</text><path d="M53.7216 3.54503C55.5063 4.01564 56.8769 5.03175 57.8334 6.59335 58.7898 8.15493 59.2683 10.0389 59.2683 12.2453 59.2683 14.4578 58.7915 16.3418 57.838 17.8973 56.8845 19.4528 55.5124 20.4658 53.7216 20.9365L53.5016 20.2305C54.9135 19.7599 55.9632 18.8309 56.6507 17.4435 57.3384 16.0561 57.6821 14.2928 57.6821 12.1537 57.6821 10.0878 57.3399 8.3719 56.6554 7.0059 55.9708 5.63989 54.9104 4.72157 53.4741 4.25096ZM24.6747 3.54503 24.9222 4.25096C23.492 4.72157 22.4331 5.63989 21.7455 7.0059 21.0579 8.3719 20.7141 10.0878 20.7141 12.1537 20.7141 14.2928 21.0579 16.0561 21.7455 17.4435 22.4331 18.8309 23.4828 19.7599 24.8947 20.2305L24.6747 20.9365C22.8839 20.4658 21.5118 19.4528 20.5583 17.8973 19.6048 16.3418 19.1281 14.4578 19.1281 12.2453 19.1281 10.0389 19.6064 8.15493 20.5629 6.59335 21.5194 5.03175 22.89 4.01564 24.6747 3.54503Z" fill-rule="evenodd" transform="matrix(1 0 0 1.0015 360.867 92.891)"/><text fill="#C55A11" font-family="Cambria Math,Cambria Math_MSFontService,sans-serif" font-weight="400" font-size="32.0176" transform="matrix(0.58642 0 0 0.587299 386.134 110)">ğ’™</text><text font-family="Cambria Math,Cambria Math_MSFontService,sans-serif" font-weight="400" font-size="32.0176" transform="matrix(0.58642 0 0 0.587299 396.984 110)">,</text><text font-family="Cambria Math,Cambria Math_MSFontService,sans-serif" font-weight="400" font-size="32.0176" transform="matrix(0.58642 0 0 0.587299 403.925 110)">ğ’“</text><text font-family="Cambria Math,Cambria Math_MSFontService,sans-serif" font-weight="400" font-size="32.0176" transform="matrix(0.58642 0 0 0.587299 426.994 110)">=</text><path d="M236.795 3.49662 237.033 3.49662C238.469 3.52107 239.544 3.84959 240.256 4.48216 240.967 5.11475 241.323 6.06669 241.323 7.33793 241.323 7.84524 241.252 8.42281 241.108 9.07068 240.965 9.71856 240.892 10.1525 240.892 10.3725 240.892 10.7942 241.038 11.138 241.328 11.4039 241.618 11.6698 242.057 11.8118 242.643 11.8302L242.643 12.582C242.057 12.6003 241.618 12.7424 241.328 13.0083 241.038 13.2741 240.892 13.618 240.892 14.0397 240.892 14.2597 240.965 14.6936 241.108 15.3415 241.252 15.9894 241.323 16.5669 241.323 17.0742 241.323 18.3883 240.967 19.3616 240.256 19.9942 239.544 20.6268 238.469 20.9553 237.033 20.9798L236.795 20.9798 236.795 20.283 236.932 20.283C237.818 20.283 238.512 20.0523 239.014 19.5908 239.514 19.1294 239.765 18.3455 239.765 17.2392 239.765 16.8114 239.704 16.2827 239.582 15.6532 239.459 15.0237 239.398 14.5745 239.398 14.3055 239.398 13.786 239.551 13.3597 239.857 13.0266 240.162 12.6935 240.526 12.4475 240.948 12.2886L240.948 12.1236C240.526 11.9647 240.162 11.7187 239.857 11.3856 239.551 11.0525 239.398 10.6262 239.398 10.1067 239.398 9.83772 239.459 9.38852 239.582 8.759 239.704 8.12942 239.765 7.60076 239.765 7.17291 239.765 6.10944 239.514 5.347 239.014 4.88555 238.512 4.4241 237.818 4.19338 236.932 4.19338L236.795 4.19338ZM91.7987 3.49662 92.0368 3.49662 92.0368 4.19338 91.8996 4.19338C91.0135 4.19338 90.3198 4.4241 89.8184 4.88555 89.3176 5.347 89.0666 6.10639 89.0666 7.16376 89.0666 7.59161 89.1276 8.12027 89.2502 8.74979 89.3721 9.37931 89.4337 9.82857 89.4337 10.0975 89.4337 10.617 89.2806 11.0433 88.9751 11.3764 88.6696 11.7095 88.306 11.9555 87.8838 12.1144L87.8838 12.2795C88.306 12.4383 88.6696 12.6843 88.9751 13.0175 89.2806 13.3505 89.4337 13.7769 89.4337 14.2964 89.4337 14.5653 89.3721 15.0145 89.2502 15.644 89.1276 16.2736 89.0666 16.8022 89.0666 17.2301 89.0666 18.3424 89.3176 19.1294 89.8184 19.5908 90.3198 20.0523 91.0135 20.283 91.8996 20.283L92.0368 20.283 92.0368 20.9798 91.7987 20.9798C90.3626 20.9553 89.2883 20.6268 88.5764 19.9942 87.8644 19.3616 87.5079 18.3852 87.5079 17.0651 87.5079 16.5577 87.58 15.9802 87.7237 15.3324 87.8674 14.6845 87.9389 14.2505 87.9389 14.0305 87.9389 13.6087 87.7941 13.265 87.5038 12.9991 87.2135 12.7332 86.7749 12.5911 86.1879 12.5728L86.1879 11.821C86.7749 11.8027 87.2135 11.6606 87.5038 11.3947 87.7941 11.1288 87.9389 10.7851 87.9389 10.3633 87.9389 10.1433 87.8674 9.70935 87.7237 9.06153 87.58 8.41366 87.5079 7.83609 87.5079 7.32878 87.5079 6.06364 87.8644 5.11475 88.5764 4.48216 89.2883 3.84959 90.3626 3.52107 91.7987 3.49662Z" fill-rule="evenodd" transform="matrix(1 0 0 1.0015 360.867 92.891)"/><text fill="#C55A11" font-family="Cambria Math,Cambria Math_MSFontService,sans-serif" font-weight="400" font-size="32.0176" transform="matrix(0.58642 0 0 0.587299 453.453 110)">ğ’š</text><text font-family="Cambria Math,Cambria Math_MSFontService,sans-serif" font-weight="400" font-size="32.0176" transform="matrix(0.58642 0 0 0.587299 469.906 110)">âˆˆ</text><text font-family="Cambria Math,Cambria Math_MSFontService,sans-serif" font-weight="400" font-size="32.0176" transform="matrix(0.58642 0 0 0.587299 486.849 110)">ğ‘¿</text><text font-family="Cambria Math,Cambria Math_MSFontService,sans-serif" font-weight="400" font-size="32.0176" transform="matrix(0.58642 0 0 0.587299 499.85 110)">|</text><text font-family="Cambria Math,Cambria Math_MSFontService,sans-serif" font-weight="400" font-size="32.0176" transform="matrix(0.58642 0 0 0.587299 505.812 110)">ğ’…</text><path d="M194.483 3.54503C196.268 4.01564 197.638 5.03175 198.595 6.59335 199.552 8.15493 200.03 10.0389 200.03 12.2453 200.03 14.4578 199.553 16.3418 198.599 17.8973 197.646 19.4528 196.274 20.4658 194.483 20.9365L194.263 20.2305C195.675 19.7599 196.724 18.8309 197.412 17.4435 198.1 16.0561 198.444 14.2928 198.444 12.1537 198.444 10.0878 198.101 8.3719 197.417 7.0059 196.732 5.63989 195.672 4.72157 194.236 4.25096ZM164.263 3.54503 164.511 4.25096C163.08 4.72157 162.021 5.63989 161.334 7.0059 160.646 8.3719 160.303 10.0878 160.303 12.1537 160.303 14.2928 160.646 16.0561 161.334 17.4435 162.021 18.8309 163.071 19.7599 164.483 20.2305L164.263 20.9365C162.472 20.4658 161.1 19.4528 160.147 17.8973 159.193 16.3418 158.716 14.4578 158.716 12.2453 158.716 10.0389 159.195 8.15493 160.151 6.59335 161.108 5.03175 162.478 4.01564 164.263 3.54503Z" fill-rule="evenodd" transform="matrix(1 0 0 1.0015 360.867 92.891)"/><text fill="#C55A11" font-family="Cambria Math,Cambria Math_MSFontService,sans-serif" font-weight="400" font-size="32.0176" transform="matrix(0.58642 0 0 0.587299 525.722 110)">ğ’™</text><text font-family="Cambria Math,Cambria Math_MSFontService,sans-serif" font-weight="400" font-size="32.0176" transform="matrix(0.58642 0 0 0.587299 536.572 110)">,</text><text fill="#C55A11" font-family="Cambria Math,Cambria Math_MSFontService,sans-serif" font-weight="400" font-size="32.0176" transform="matrix(0.58642 0 0 0.587299 543.513 110)">ğ’š</text><text font-family="Cambria Math,Cambria Math_MSFontService,sans-serif" font-weight="400" font-size="32.0176" transform="matrix(0.58642 0 0 0.587299 567.755 110)">&lt;</text><text font-family="Cambria Math,Cambria Math_MSFontService,sans-serif" font-weight="400" font-size="32.0176" transform="matrix(0.58642 0 0 0.587299 587.043 110)">ğ’“</text><text fill="#C55A11" font-family="Cambria Math,Cambria Math_MSFontService,sans-serif" font-weight="400" font-size="32.0176" transform="matrix(0.58642 0 0 0.587299 525.74 79)">ğ‘¿</text><text fill="#C55A11" font-family="Cambria Math,Cambria Math_MSFontService,sans-serif" font-weight="400" font-size="32.0176" transform="matrix(0.58642 0 0 0.587299 450.892 150)">ğ‘¿</text><text font-family="Cambria Math,Cambria Math_MSFontService,sans-serif" font-weight="400" font-size="32.0176" transform="matrix(-1.07724e-16 -0.58754 0.586183 -1.07885e-16 537.295 94)">âˆˆ</text><text fill="#C55A11" font-family="Cambria Math,Cambria Math_MSFontService,sans-serif" font-weight="400" font-size="32.0176" transform="matrix(0.58642 0 0 0.587299 385.5 79)">ğ‘¿</text><text font-family="Cambria Math,Cambria Math_MSFontService,sans-serif" font-weight="400" font-size="32.0176" transform="matrix(-1.07724e-16 -0.58754 0.586183 -1.07885e-16 397.055 94)">âˆˆ</text><text font-family="Cambria Math,Cambria Math_MSFontService,sans-serif" font-weight="400" font-size="32.0176" transform="matrix(3.59078e-17 0.58754 -0.586183 3.59619e-17 451.738 121)">âˆˆ</text><text fill="#C55A11" font-family="Cambria Math,Cambria Math_MSFontService,sans-serif" font-weight="400" font-size="32.0176" transform="matrix(0.58642 0 0 0.587299 542.247 148)">ğ‘¿</text><text font-family="Cambria Math,Cambria Math_MSFontService,sans-serif" font-weight="400" font-size="32.0176" transform="matrix(3.59078e-17 0.58754 -0.586183 3.59619e-17 543.093 119)">âˆˆ</text><path d="M390.556 156.051 639.784 156.051 639.784 336.741 390.556 336.741Z" fill="#C55A11" fill-opacity="0.301961" transform="matrix(1 0 0 1.0011 7.99996 7.00346)"/><text fill="#C55A11" font-family="Cambria Math,Cambria Math_MSFontService,sans-serif" font-weight="400" font-size="32.0176" transform="matrix(0.58642 0 0 0.587299 406.746 184)">ğ‘¿</text><path d="M357.423 233.489C357.423 214.535 372.782 199.17 391.728 199.17 410.675 199.17 426.034 214.535 426.034 233.489 426.034 252.444 410.675 267.809 391.728 267.809 372.782 267.809 357.423 252.444 357.423 233.489Z" stroke="#C55A11" stroke-width="1.75952" stroke-miterlimit="8" stroke-dasharray="1.75952 1.75952" fill="none" fill-rule="evenodd" transform="matrix(1 0 0 1.0011 7.99996 7.00346)"/><path d="M364.46 233.489C364.46 218.423 376.537 206.21 391.435 206.21 406.333 206.21 418.41 218.423 418.41 233.489 418.41 248.555 406.333 260.769 391.435 260.769 376.537 260.769 364.46 248.555 364.46 233.489Z" stroke="#C55A11" stroke-width="1.75952" stroke-miterlimit="8" stroke-dasharray="1.75952 1.75952" fill="none" fill-rule="evenodd" transform="matrix(1 0 0 1.0011 7.99996 7.00346)"/><path d="M372.083 233.489C372.083 222.635 380.878 213.836 391.728 213.836 402.578 213.836 411.373 222.635 411.373 233.489 411.373 244.344 402.578 253.142 391.728 253.142 380.878 253.142 372.083 244.344 372.083 233.489Z" stroke="#C55A11" stroke-width="1.75952" stroke-miterlimit="8" stroke-dasharray="1.75952 1.75952" fill="none" fill-rule="evenodd" transform="matrix(1 0 0 1.0011 7.99996 7.00346)"/><path d="M379.707 233.489C379.707 227.171 384.958 222.05 391.435 222.05 397.913 222.05 403.164 227.171 403.164 233.489 403.164 239.808 397.913 244.929 391.435 244.929 384.958 244.929 379.707 239.808 379.707 233.489Z" stroke="#C55A11" stroke-width="1.75952" stroke-miterlimit="8" stroke-dasharray="1.75952 1.75952" fill="none" fill-rule="evenodd" transform="matrix(1 0 0 1.0011 7.99996 7.00346)"/><path d="M387.917 233.489C387.917 231.384 389.623 229.676 391.728 229.676 393.834 229.676 395.54 231.384 395.54 233.489 395.54 235.595 393.834 237.302 391.728 237.302 389.623 237.302 387.917 235.595 387.917 233.489Z" stroke="#C55A11" stroke-width="0.782008" stroke-miterlimit="8" stroke-dasharray="0.782008 0.782008" fill="#C55A11" fill-rule="evenodd" transform="matrix(1 0 0 1.0011 7.99996 7.00346)"/><path d="M391.142 272.795C391.142 276.035 389.991 278.662 388.572 278.662L376.706 278.662C375.286 278.662 374.136 281.289 374.136 284.529 374.136 281.289 372.985 278.662 371.566 278.662L359.699 278.662C358.28 278.662 357.13 276.035 357.13 272.795" stroke="#C00000" stroke-width="1.17348" stroke-miterlimit="8" fill="none" fill-rule="evenodd" transform="matrix(1 0 0 1.0011 7.99996 7.00346)"/><text fill="#C55A11" font-family="Yu Gothic,Yu Gothic_MSFontService,sans-serif" font-weight="700" font-size="24.0132" transform="matrix(0.58642 0 0 0.587299 337.157 312)">é–‹çƒ</text><text fill="#C55A11" font-family="Yu Gothic,Yu Gothic_MSFontService,sans-serif" font-weight="700" font-size="24.0132" transform="matrix(0.58642 0 0 0.587299 365.321 312)">ã«</text><text fill="#C55A11" font-family="Yu Gothic,Yu Gothic_MSFontService,sans-serif" font-weight="700" font-size="24.0132" transform="matrix(0.58642 0 0 0.587299 379.403 312)">å«</text><text fill="#C55A11" font-family="Yu Gothic,Yu Gothic_MSFontService,sans-serif" font-weight="700" font-size="24.0132" transform="matrix(0.58642 0 0 0.587299 337.157 329)">ã¾ã‚Œãªã„</text><path d="M165.693 187.253C168.547 185.541 171.468 185.166 172.218 186.417L178.33 196.608C179.08 197.858 182.001 197.484 184.854 195.772 182.001 197.484 180.297 199.886 181.047 201.137L187.159 211.327C187.909 212.578 186.204 214.98 183.351 216.693" stroke="#C00000" stroke-width="1.17314" stroke-miterlimit="8" fill="none" fill-rule="evenodd" transform="matrix(1 0 0 1.0011 7.99996 7.00346)"/><text fill="#C55A11" font-family="Yu Gothic,Yu Gothic_MSFontService,sans-serif" font-weight="700" font-size="24.0132" transform="matrix(0.58642 0 0 0.587299 201.791 190)">é–‹çƒ</text><text fill="#C55A11" font-family="Yu Gothic,Yu Gothic_MSFontService,sans-serif" font-weight="700" font-size="24.0132" transform="matrix(0.58642 0 0 0.587299 229.955 190)">ã«</text><text fill="#C55A11" font-family="Yu Gothic,Yu Gothic_MSFontService,sans-serif" font-weight="700" font-size="24.0132" transform="matrix(0.58642 0 0 0.587299 244.037 190)">å«</text><text fill="#C55A11" font-family="Yu Gothic,Yu Gothic_MSFontService,sans-serif" font-weight="700" font-size="24.0132" transform="matrix(0.58642 0 0 0.587299 201.791 207)">ã¾ã‚Œã‚‹</text></g></g></g></g></g></svg>