<svg width="680" height="217" xmlns="http://www.w3.org/2000/svg" xmlns:xlink="http://www.w3.org/1999/xlink" overflow="hidden"><g><rect x="0" y="0" width="680" height="216.773" fill="#FFFFFF"/><path d="M6.50002 108.886C6.50002 55.6464 49.4807 12.487 102.5 12.487 155.519 12.487 198.5 55.6464 198.5 108.886 198.5 162.126 155.519 205.285 102.5 205.285 49.4807 205.285 6.50002 162.126 6.50002 108.886Z" stroke="#172C51" stroke-width="2.99853" stroke-miterlimit="8" fill="none" fill-rule="evenodd"/><rect x="6" y="11.9875" width="192" height="192.798" stroke="#A6A6A6" stroke-width="1.99902" stroke-miterlimit="8" fill="none"/><path d="M242.5 108.886C242.5 55.6464 285.705 12.487 339 12.487 392.296 12.487 435.5 55.6464 435.5 108.886 435.5 162.126 392.296 205.285 339 205.285 285.705 205.285 242.5 162.126 242.5 108.886Z" stroke="#172C51" stroke-width="2.99853" stroke-miterlimit="8" fill="none" fill-rule="evenodd"/><path d="M242.5 176.807 242.943 39.4105 270.547 39.4105 270.547 11.488 407.564 11.488 407.564 39.0781 435.5 39.0781 435.5 176.696 408.229 176.696 407.786 203.843 269.881 204.286 269.881 177.029 242.5 176.807Z" stroke="#A6A6A6" stroke-width="1.33268" stroke-miterlimit="8" fill="none" fill-rule="evenodd"/><path d="M242.5 38.4598 242.5 11.488 269.5 11.488" stroke="#A6A6A6" stroke-width="1.33268" stroke-miterlimit="8" stroke-dasharray="5.33072 3.99804" fill="none" fill-rule="evenodd"/><path d="M408.5 11.488 435.5 11.488 435.5 39.4588" stroke="#A6A6A6" stroke-width="1.33129" stroke-miterlimit="8" stroke-dasharray="5.32515 3.99387" fill="none" fill-rule="evenodd"/><path d="M435.5 177.315 435.5 204.286 408.5 204.286" stroke="#A6A6A6" stroke-width="1.33268" stroke-miterlimit="8" stroke-dasharray="5.33072 3.99804" fill="none" fill-rule="evenodd"/><path d="M269.5 204.286 242.5 204.286 242.5 177.315" stroke="#A6A6A6" stroke-width="1.33129" stroke-miterlimit="8" stroke-dasharray="5.32515 3.99387" fill="none" fill-rule="evenodd"/><path d="M477.5 109.885C477.5 56.6454 520.705 13.486 574 13.486 627.295 13.486 670.5 56.6454 670.5 109.885 670.5 163.125 627.295 206.284 574 206.284 520.705 206.284 477.5 163.125 477.5 109.885Z" stroke="#172C51" stroke-width="2.99853" stroke-miterlimit="8" fill="none" fill-rule="evenodd"/><path d="M520.191 206.284 520.191 189.829 505.071 189.829 505.071 177.376 492.175 177.376 492.175 161.81 477.5 161.81 477.5 55.0726 492.62 55.0726 492.62 39.9513 505.071 39.9513 505.071 27.4986 520.636 27.4986 520.636 11.488 626.475 11.488 626.475 27.9433 642.929 27.9433 642.929 39.5066 654.936 39.5066 654.936 53.7384 670.5 53.7384 670.5 160.476 654.936 160.476 654.936 176.932 643.373 176.932 643.373 189.384 626.919 189.384 626.919 205.395 520.191 206.284Z" stroke="#A6A6A6" stroke-width="1.33268" stroke-miterlimit="8" fill="none" fill-rule="evenodd"/><path d="M478.5 54.4431 478.5 41.4566 492.5 41.4566" stroke="#A6A6A6" stroke-width="1.33268" stroke-miterlimit="8" stroke-dasharray="5.33072 3.99804" fill="none" fill-rule="evenodd"/><path d="M506.5 26.4723 506.5 12.487 520.5 12.487" stroke="#A6A6A6" stroke-width="1.33268" stroke-miterlimit="8" stroke-dasharray="5.33072 3.99804" fill="none" fill-rule="evenodd"/><path d="M628.5 12.487 642.5 12.487 642.5 26.4723" stroke="#A6A6A6" stroke-width="1.33129" stroke-miterlimit="8" stroke-dasharray="5.32515 3.99387" fill="none" fill-rule="evenodd"/><path d="M656.5 39.4588 670.5 39.4588 670.5 53.4441" stroke="#A6A6A6" stroke-width="1.33129" stroke-miterlimit="8" stroke-dasharray="5.32515 3.99387" fill="none" fill-rule="evenodd"/><path d="M670.5 161.331 670.5 175.317 656.5 175.317" stroke="#A6A6A6" stroke-width="1.33268" stroke-miterlimit="8" stroke-dasharray="5.33072 3.99804" fill="none" fill-rule="evenodd"/><path d="M643.5 191.3 643.5 205.285 628.5 205.285" stroke="#A6A6A6" stroke-width="1.33268" stroke-miterlimit="8" stroke-dasharray="5.33072 3.99804" fill="none" fill-rule="evenodd"/><path d="M491.5 176.316 477.5 176.316 477.5 162.33" stroke="#A6A6A6" stroke-width="1.33129" stroke-miterlimit="8" stroke-dasharray="5.32515 3.99387" fill="none" fill-rule="evenodd"/><path d="M519.5 206.284 505.5 206.284 505.5 191.3" stroke="#A6A6A6" stroke-width="1.33129" stroke-miterlimit="8" stroke-dasharray="5.32515 3.99387" fill="none" fill-rule="evenodd"/><path d="M207.5 101.144 222 101.144 222 93.4024 236.5 108.886 222 124.37 222 116.628 207.5 116.628Z" stroke="#172C51" stroke-width="1.33268" stroke-miterlimit="8" fill="none" fill-rule="evenodd"/><path d="M443.5 101.144 458 101.144 458 93.4024 472.5 108.886 458 124.37 458 116.628 443.5 116.628Z" stroke="#172C51" stroke-width="1.33268" stroke-miterlimit="8" fill="none" fill-rule="evenodd"/><path d="M0 0 191.8 0" stroke="#172C51" stroke-width="2.9954" stroke-miterlimit="8" fill="none" fill-rule="evenodd" transform="matrix(1.00105 0 0 -1 5.49998 105.39)"/><path d="M5.49998 105.39C45.6751 131.383 162.931 130.001 197.5 105.39" stroke="#172C51" stroke-width="1.33268" stroke-miterlimit="8" fill="none" fill-rule="evenodd"/><text font-family="Yu Gothic,Yu Gothic_MSFontService,sans-serif" font-weight="700" font-size="14.6442" transform="matrix(1 0 0 0.998956 87.384 146)">直径</text><text font-family="Calibri,Calibri_MSFontService,sans-serif" font-weight="700" font-size="14.6442" transform="matrix(1 0 0 0.998956 120.035 146)">1</text></g></svg>